<svg width="840" height="734" viewBox="0 0 840 734" fill="none" xmlns="http://www.w3.org/2000/svg">
<circle opacity="0.5" cx="73.931" cy="482.207" r="9.93103" fill="#3A449C"/>
<circle opacity="0.2" cx="494.345" cy="288" r="288" fill="url(#paint0_linear)"/>
<path opacity="0.5" d="M74.4829 482.207C74.4829 482.207 147.565 317.388 287.001 308.674C426.438 299.959 468.874 443.29 606.095 450.489C743.316 457.688 832 233.931 832 233.931" stroke="#3A449C" stroke-width="3"/>
<circle opacity="0.5" cx="303.448" cy="71.7242" r="5.51724" fill="#1A88C9"/>
<circle opacity="0.5" cx="831.448" cy="234.483" r="8.27586" fill="#3A449C"/>
<path opacity="0.3" d="M303.448 71.7241C303.448 71.7241 304.552 108.944 323.862 120.828C343.172 132.711 376.276 116.414 400 135.172C423.724 153.931 420.312 209.856 494.025 238.683C567.739 267.511 769.103 202.649 769.103 202.649" stroke="#1A88C9" stroke-width="3"/>
<circle cx="232.827" cy="549.517" r="26.4828" fill="#2E1C8D" fill-opacity="0.1"/>
<circle opacity="0.1" cx="692.966" cy="22.0689" r="11.0345" fill="#1A88C9"/>
<g opacity="0.9" filter="url(#filter0_d)">
<rect x="180" y="169" width="227" height="233" rx="30" fill="white"/>
</g>
<path d="M218.525 218.917C216.846 218.877 215.366 218.317 214.166 217.117C209.727 212.637 205.248 208.197 200.769 203.717C197.45 200.397 198.77 194.797 203.249 193.397C205.608 192.677 207.768 193.197 209.527 194.957C213.966 199.357 218.325 203.757 222.724 208.157C223.924 209.357 224.604 210.797 224.684 212.517C224.804 215.357 222.764 218.037 219.965 218.677C219.525 218.797 219.005 218.837 218.525 218.917Z" fill="#DA1A5E"/>
<path d="M230.928 193.083C234.327 193.083 237.086 195.803 237.086 199.243C237.086 202.683 234.367 205.443 230.928 205.483C227.528 205.523 224.729 202.683 224.689 199.283C224.729 195.843 227.488 193.083 230.928 193.083Z" fill="#DA1A5E"/>
<path d="M254.487 216H259.159L265.291 197.681H261.038L256.861 212.077H256.785L252.596 197.681H248.355L254.487 216ZM271.271 216.279C275.155 216.279 277.034 213.981 277.453 211.976L277.491 211.836H274.089L274.063 211.912C273.797 212.674 272.87 213.512 271.347 213.512C269.455 213.512 268.274 212.242 268.236 210.071H277.605V208.929C277.605 204.815 275.104 202.111 271.118 202.111C267.132 202.111 264.58 204.879 264.58 209.208V209.221C264.58 213.575 267.106 216.279 271.271 216.279ZM271.182 204.879C272.718 204.879 273.822 205.856 274.051 207.735H268.274C268.516 205.895 269.658 204.879 271.182 204.879ZM279.611 216H283.318V197.681H279.611V216ZM292.065 216.279C296.179 216.279 298.807 213.639 298.807 209.195V209.17C298.807 204.765 296.128 202.111 292.053 202.111C287.99 202.111 285.324 204.79 285.324 209.17V209.195C285.324 213.626 287.927 216.279 292.065 216.279ZM292.078 213.372C290.25 213.372 289.095 211.861 289.095 209.195V209.17C289.095 206.542 290.263 205.019 292.053 205.019C293.855 205.019 295.036 206.542 295.036 209.17V209.195C295.036 211.849 293.881 213.372 292.078 213.372Z" fill="#4F4F4F"/>
<rect x="361" y="191" width="30" height="30" rx="10" fill="#03A66D" fill-opacity="0.1"/>
<path d="M376.192 201.73L382.407 209.188C382.841 209.709 382.47 210.5 381.792 210.5L370.208 210.5C369.53 210.5 369.159 209.709 369.593 209.188L375.808 201.73C375.908 201.611 376.092 201.611 376.192 201.73Z" fill="#03A66D"/>
<path d="M287.32 353.164C289.508 353.164 291.046 351.995 291.046 350.327V350.313C291.046 349.069 290.157 348.085 288.872 347.805V347.771C289.973 347.456 290.69 346.636 290.69 345.59V345.576C290.69 344.072 289.282 342.972 287.32 342.972C285.358 342.972 283.957 344.072 283.957 345.576V345.59C283.957 346.636 284.675 347.456 285.775 347.771V347.805C284.49 348.085 283.595 349.069 283.595 350.313V350.327C283.595 351.995 285.14 353.164 287.32 353.164ZM287.32 347.258C286.227 347.258 285.475 346.622 285.475 345.727V345.713C285.475 344.811 286.227 344.182 287.32 344.182C288.414 344.182 289.173 344.811 289.173 345.713V345.727C289.173 346.622 288.421 347.258 287.32 347.258ZM287.32 351.94C286.062 351.94 285.167 351.223 285.167 350.225V350.211C285.167 349.206 286.056 348.481 287.32 348.481C288.585 348.481 289.474 349.206 289.474 350.211V350.225C289.474 351.223 288.578 351.94 287.32 351.94ZM293.035 353.103C293.534 353.103 293.931 352.706 293.931 352.207C293.931 351.701 293.534 351.312 293.035 351.312C292.529 351.312 292.133 351.701 292.133 352.207C292.133 352.706 292.529 353.103 293.035 353.103ZM298.894 353.164C301.245 353.164 302.66 351.202 302.66 348.071V348.058C302.66 344.927 301.245 342.972 298.894 342.972C296.535 342.972 295.127 344.927 295.127 348.058V348.071C295.127 351.202 296.535 353.164 298.894 353.164ZM298.894 351.886C297.485 351.886 296.672 350.437 296.672 348.071V348.058C296.672 345.692 297.485 344.257 298.894 344.257C300.295 344.257 301.115 345.692 301.115 348.058V348.071C301.115 350.437 300.295 351.886 298.894 351.886ZM303.918 353H310.665V351.708H305.969V351.646L308.211 349.445C309.981 347.695 310.508 346.896 310.508 345.768V345.754C310.508 344.161 309.154 342.972 307.261 342.972C305.333 342.972 303.836 344.25 303.836 346.014V346.055H305.285V346.014C305.299 345.016 306.126 344.236 307.281 344.236C308.279 344.236 308.99 344.906 308.997 345.843V345.856C308.997 346.622 308.703 347.142 307.391 348.454L303.918 351.947V353ZM316.811 348.078C318.116 348.078 318.909 347.114 318.909 345.562V345.556C318.909 344.018 318.116 343.054 316.811 343.054C315.505 343.054 314.705 344.018 314.705 345.556V345.562C314.705 347.114 315.505 348.078 316.811 348.078ZM317.46 353L323.749 343.136H322.491L316.195 353H317.46ZM316.811 347.148C316.188 347.148 315.833 346.567 315.833 345.569V345.562C315.833 344.558 316.188 343.983 316.811 343.983C317.433 343.983 317.788 344.558 317.788 345.562V345.569C317.788 346.567 317.433 347.148 316.811 347.148ZM323.127 353.082C324.433 353.082 325.226 352.118 325.226 350.573V350.566C325.226 349.021 324.433 348.058 323.127 348.058C321.821 348.058 321.028 349.021 321.028 350.566V350.573C321.028 352.118 321.821 353.082 323.127 353.082ZM323.127 352.152C322.505 352.152 322.149 351.571 322.149 350.573V350.566C322.149 349.562 322.505 348.994 323.127 348.994C323.749 348.994 324.104 349.562 324.104 350.566V350.573C324.104 351.571 323.749 352.152 323.127 352.152Z" fill="#4F4F4F"/>
<path d="M271.19 344.721L275.868 350.179C276.313 350.698 275.944 351.5 275.261 351.5L266.739 351.5C266.056 351.5 265.687 350.698 266.132 350.179L270.81 344.721C270.91 344.605 271.09 344.605 271.19 344.721Z" fill="#03A66D"/>
<path d="M212 295.199C223.2 292.399 222 302.399 227.6 301.599C233.2 300.799 232.8 274.799 237.6 274.399C242.4 273.999 241.6 295.199 246.8 295.199C252 295.199 250.8 285.199 255.6 285.199C260.4 285.199 256.8 311.598 266 311.998C275.2 312.398 273.2 244 280 244C286.8 244 290 282.399 292.4 284.399C294.8 286.399 296 284.799 297.6 286.399C299.2 287.999 299.2 298.799 305.6 298.399C312 297.999 307.2 266.799 314.4 266.799C321.6 266.799 318.4 280.399 325.2 280.399C332 280.399 331.2 256.8 338.4 257.2C345.6 257.6 346 285.999 355.6 285.199C365.2 284.399 376 257.2 376 257.2" stroke="#03A66D" stroke-width="2"/>
<line x1="199" y1="377.5" x2="389" y2="377.5" stroke="#E0E0E0"/>
<rect x="294.5" y="372" width="7.77817" height="7.77817" transform="rotate(45 294.5 372)" fill="#C4C4C4"/>
<rect opacity="0.9" x="436.966" y="99.2413" width="345.379" height="393.931" rx="30" fill="white"/>
<path d="M478.965 162.124H480.43V159.678C484.678 159.443 487.681 157.261 487.681 153.555V153.525C487.681 150.347 485.659 148.677 481.587 147.812L480.43 147.578V142.495C482.173 142.7 483.242 143.579 483.462 145.029L483.491 145.161H487.402L487.373 144.912C487.08 141.528 484.487 139.448 480.43 139.199V136.738H478.965V139.185C474.79 139.39 471.963 141.689 471.963 145.117V145.146C471.963 148.252 473.955 150.068 477.866 150.889L478.965 151.123V156.367C476.841 156.177 475.845 155.21 475.596 153.862L475.566 153.701H471.655L471.67 153.921C471.904 157.378 474.761 159.458 478.965 159.678V162.124ZM476.05 144.824V144.795C476.05 143.623 477.031 142.656 478.965 142.48V147.271C476.855 146.802 476.05 146.011 476.05 144.824ZM483.594 153.936V153.965C483.594 155.283 482.627 156.235 480.43 156.396V151.431C482.861 151.958 483.594 152.676 483.594 153.936ZM502.153 160H506.533V138.862H502.139L496.675 142.656V146.582L502.065 142.92H502.153V160ZM511.279 160H526.646V156.484H517.065V156.309L521.489 152.266C525.137 148.911 526.353 147.241 526.353 144.678V144.648C526.353 141.045 523.276 138.496 518.809 138.496C514.341 138.496 511.03 141.294 511.03 145.278V145.396H515.132L515.146 145.264C515.205 143.359 516.67 141.938 518.838 141.938C520.713 141.938 522.031 143.169 522.046 144.897V144.927C522.046 146.392 521.475 147.432 518.75 149.98L511.279 156.968V160ZM537.5 160.366C542.334 160.366 545.674 157.363 545.674 152.939V152.91C545.674 148.926 542.773 146.04 538.76 146.04C536.621 146.04 534.878 146.904 533.999 148.325H533.911L534.424 142.378H544.399V138.862H530.908L529.941 151.27H533.794C534.043 150.83 534.38 150.42 534.805 150.098C535.522 149.526 536.445 149.204 537.529 149.204C539.814 149.204 541.44 150.771 541.455 152.998V153.027C541.455 155.283 539.829 156.865 537.515 156.865C535.479 156.865 533.999 155.635 533.691 154.038L533.662 153.936H529.575L529.59 154.155C529.854 157.686 532.9 160.366 537.5 160.366ZM550.112 160.249C551.431 160.249 552.485 159.194 552.485 157.876C552.485 156.543 551.431 155.503 550.112 155.503C548.779 155.503 547.739 156.543 547.739 157.876C547.739 159.194 548.779 160.249 550.112 160.249ZM565.596 160H569.8V156.118H572.583V152.588H569.8V138.862H563.56L555.078 152.427V156.118H565.596V160ZM558.931 152.705V152.588L565.581 142.056H565.684V152.705H558.931ZM583.057 160.366C587.891 160.366 591.23 157.363 591.23 152.939V152.91C591.23 148.926 588.33 146.04 584.316 146.04C582.178 146.04 580.435 146.904 579.556 148.325H579.468L579.98 142.378H589.956V138.862H576.465L575.498 151.27H579.351C579.6 150.83 579.937 150.42 580.361 150.098C581.079 149.526 582.002 149.204 583.086 149.204C585.371 149.204 586.997 150.771 587.012 152.998V153.027C587.012 155.283 585.386 156.865 583.071 156.865C581.035 156.865 579.556 155.635 579.248 154.038L579.219 153.936H575.132L575.146 154.155C575.41 157.686 578.457 160.366 583.057 160.366Z" fill="#4F4F4F"/>
<path d="M547.68 455H549.656V443.727H547.664L544.719 445.797V447.648L547.633 445.648H547.68V455ZM552.43 455H554.445V450.109H559.93V455H561.938V443.727H559.93V448.414H554.445V443.727H552.43V455Z" fill="#828282"/>
<path d="M609.203 455H611.125V452.836H612.656V451.18H611.125V443.727H608.258L603.578 451.117V452.836H609.203V455ZM605.391 451.227V451.172L609.188 445.25H609.234V451.227H605.391ZM614.102 455H616.117V450.109H621.602V455H623.609V443.727H621.602V448.414H616.117V443.727H614.102V455Z" fill="#828282"/>
<path d="M668.68 455H670.656V443.727H668.664L665.719 445.797V447.648L668.633 445.648H668.68V455ZM673.43 455H677.547C680.922 455 682.906 452.906 682.906 449.336V449.32C682.906 445.758 680.906 443.727 677.547 443.727H673.43V455ZM675.445 453.297V445.43H677.336C679.578 445.43 680.852 446.812 680.852 449.328V449.344C680.852 451.914 679.602 453.297 677.336 453.297H675.445Z" fill="#828282"/>
<path d="M727.68 455H729.656V443.727H727.664L724.719 445.797V447.648L727.633 445.648H727.68V455ZM734.719 455H736.664L738.938 446.914H738.984L741.258 455H743.203L746.227 443.727H744.133L742.172 452.234H742.133L739.875 443.727H738.047L735.789 452.234H735.75L733.789 443.727H731.695L734.719 455Z" fill="#828282"/>
<rect opacity="0.4" x="468" y="432" width="42" height="35" rx="10" fill="#1A88C9"/>
<path d="M476.68 455H478.656V443.727H476.664L473.719 445.797V447.648L476.633 445.648H476.68V455ZM485.469 455.195C487.961 455.195 489.703 453.602 489.703 451.281V451.266C489.703 449.125 488.156 447.57 486.008 447.57C484.875 447.57 483.945 448.016 483.453 448.773H483.414L483.727 445.375H489.039V443.727H482.117L481.578 450.281H483.336C483.469 450.031 483.656 449.812 483.867 449.641C484.297 449.281 484.852 449.086 485.492 449.086C486.812 449.086 487.758 450.008 487.758 451.297V451.312C487.758 452.633 486.828 453.555 485.484 453.555C484.297 453.555 483.438 452.828 483.273 451.883L483.266 451.828H481.375L481.383 451.93C481.531 453.797 483.125 455.195 485.469 455.195ZM491.227 455H493.047V446.984H493.102L496.352 455H497.719L500.969 446.984H501.031V455H502.844V443.727H500.516L497.062 452.336H497.008L493.555 443.727H491.227V455Z" fill="white"/>
<path opacity="0.8" d="M470.1 197.178C470.1 187.691 477.791 180 487.278 180H729.484C738.971 180 746.662 187.691 746.662 197.178V396.44C746.662 405.927 738.971 413.617 729.484 413.617H487.278C477.791 413.617 470.1 405.927 470.1 396.44V197.178Z" fill="url(#paint1_linear)"/>
<g filter="url(#filter1_d)">
<path fill-rule="evenodd" clip-rule="evenodd" d="M725.496 250.034C724.244 254.274 723.471 259.931 723.471 267.176V267.219L723.467 267.261C722.609 275.879 720.421 281.228 715.281 283.138C712.77 284.07 709.671 284.127 705.913 283.495C702.148 282.862 697.639 281.522 692.259 279.579L692.202 279.558L692.149 279.53C685.415 275.957 679.651 273.692 674.557 273.198C669.515 272.71 665.107 273.953 661.016 277.482C656.886 281.045 653.038 286.974 649.26 295.936C645.487 304.887 641.812 316.791 637.987 332.229C637.104 335.791 634.947 341.063 632.017 346.093C629.095 351.111 625.337 356.009 621.197 358.714C619.116 360.074 616.89 360.912 614.596 360.881C612.284 360.85 610.003 359.939 607.832 357.98C603.544 354.113 599.605 346.094 596.378 332.216C593.162 318.388 589.807 309.358 586.383 304.108C584.674 301.487 582.989 299.872 581.358 299.045C579.758 298.232 578.154 298.148 576.496 298.697C574.807 299.255 573.03 300.483 571.173 302.356C569.321 304.224 567.43 306.691 565.506 309.661C561.663 315.595 557.745 323.451 553.783 332.334C550.791 341.253 547.358 346.573 542.092 348.653C536.871 350.716 530.133 349.465 520.912 346.143L520.87 346.127L520.829 346.108C512.782 342.209 506.126 340.961 498.653 342.84C491.114 344.736 482.649 349.836 471.058 358.895L470 357.541C481.616 348.463 490.322 343.164 498.235 341.174C506.201 339.171 513.269 340.543 521.537 344.542C530.752 347.859 536.907 348.855 541.461 347.056C545.97 345.275 549.195 340.625 552.168 331.749L552.181 331.71L552.198 331.672C556.175 322.749 560.142 314.783 564.064 308.727C566.025 305.699 567.989 303.127 569.953 301.146C571.913 299.171 573.914 297.742 575.956 297.066C578.029 296.38 580.108 296.484 582.136 297.513C584.134 298.527 586.022 300.409 587.822 303.169C591.417 308.682 594.826 317.957 598.051 331.827C601.266 345.649 605.111 353.213 608.982 356.705C610.891 358.427 612.784 359.139 614.619 359.164C616.471 359.188 618.365 358.513 620.257 357.276C624.062 354.79 627.657 350.167 630.533 345.229C633.401 340.304 635.484 335.185 636.319 331.815C640.154 316.342 643.853 304.34 647.677 295.269C651.497 286.208 655.471 279.997 659.894 276.181C664.357 272.332 669.236 270.957 674.723 271.489C680.144 272.014 686.133 274.397 692.9 277.984C698.218 279.903 702.596 281.195 706.198 281.801C709.819 282.41 712.574 282.311 714.683 281.527C718.776 280.007 720.895 275.697 721.753 267.133C721.757 259.797 722.54 253.981 723.849 249.548C725.157 245.116 727.01 242.001 729.199 240.162C731.42 238.297 733.958 237.776 736.444 238.513C738.889 239.238 741.182 241.146 743.077 243.932L743.109 243.98L747 251.761L745.464 252.53L741.625 244.851C739.877 242.298 737.888 240.733 735.956 240.16C734.054 239.596 732.109 239.961 730.304 241.477C728.468 243.02 726.751 245.783 725.496 250.034Z" fill="white"/>
</g>
<path opacity="0.4" fill-rule="evenodd" clip-rule="evenodd" d="M665.067 412.32V413.617H664.208V412.32H665.067ZM665.067 407.128V409.724H664.208V407.128H665.067ZM665.067 401.937V404.532H664.208V401.937H665.067ZM665.067 396.745V399.341H664.208V396.745H665.067ZM665.067 391.554V394.149H664.208V391.554H665.067ZM665.067 386.362V388.958H664.208V386.362H665.067ZM665.067 381.171V383.766H664.208V381.171H665.067ZM665.067 375.979V378.575H664.208V375.979H665.067ZM665.067 370.788V373.383H664.208V370.788H665.067ZM665.067 365.596V368.192H664.208V365.596H665.067ZM665.067 360.405V363H664.208V360.405H665.067ZM665.067 355.213V357.809H664.208V355.213H665.067ZM665.067 350.022V352.617H664.208V350.022H665.067ZM665.067 344.83V347.426H664.208V344.83H665.067ZM665.067 339.639V342.234H664.208V339.639H665.067ZM665.067 334.447V337.043H664.208V334.447H665.067ZM665.067 329.256V331.851H664.208V329.256H665.067ZM665.067 324.064V326.66H664.208V324.064H665.067ZM665.067 318.873V321.468H664.208V318.873H665.067ZM665.067 313.681V316.277H664.208V313.681H665.067ZM665.067 308.49V311.085H664.208V308.49H665.067ZM665.067 303.298V305.894H664.208V303.298H665.067ZM665.067 298.107V300.702H664.208V298.107H665.067ZM665.067 292.915V295.511H664.208V292.915H665.067ZM665.067 287.724V290.319H664.208V287.724H665.067ZM665.067 282.532V285.128H664.208V282.532H665.067ZM665.067 277.341V279.936H664.208V277.341H665.067ZM665.067 272.149V274.745H664.208V272.149H665.067ZM665.067 266.958V269.553H664.208V266.958H665.067ZM665.067 261.766V264.362H664.208V261.766H665.067ZM665.067 256.575V259.17H664.208V256.575H665.067ZM665.067 251.383V253.979H664.208V251.383H665.067ZM665.067 246.192V248.787H664.208V246.192H665.067ZM665.067 241V243.596H664.208V241H665.067ZM665.067 235.809V238.404H664.208V235.809H665.067ZM665.067 230.617V233.213H664.208V230.617H665.067ZM665.067 225.426V228.021H664.208V225.426H665.067ZM665.067 220.234V222.83H664.208V220.234H665.067ZM665.067 215.043V217.639H664.208V215.043H665.067ZM665.067 209.851V212.447H664.208V209.851H665.067ZM665.067 204.66V207.256H664.208V204.66H665.067ZM665.067 199.468V202.064H664.208V199.468H665.067ZM665.067 194.277V196.873H664.208V194.277H665.067ZM665.067 189.085V191.681H664.208V189.085H665.067ZM665.067 183.894V186.49H664.208V183.894H665.067ZM665.067 180V181.298H664.208V180H665.067Z" fill="white"/>
<path d="M671.079 273.189C671.079 276.747 668.195 279.631 664.637 279.631C661.08 279.631 658.196 276.747 658.196 273.189C658.196 269.632 661.08 266.748 664.637 266.748C668.195 266.748 671.079 269.632 671.079 273.189Z" fill="white" fill-opacity="0.5"/>
<path d="M668.502 273.189C668.502 275.324 666.772 277.054 664.637 277.054C662.503 277.054 660.772 275.324 660.772 273.189C660.772 271.055 662.503 269.324 664.637 269.324C666.772 269.324 668.502 271.055 668.502 273.189Z" fill="white"/>
<path d="M623.84 223.803C623.84 221.431 625.763 219.509 628.135 219.509H701.999C704.371 219.509 706.293 221.431 706.293 223.803V253.864C706.293 256.236 704.371 258.159 701.999 258.159H669.361H665.067H659.913H628.135C625.763 258.159 623.84 256.236 623.84 253.864V223.803Z" fill="white"/>
<path d="M666.011 262.34C665.324 263.256 663.951 263.256 663.264 262.34L659.803 257.729L669.472 257.729L666.011 262.34Z" fill="white"/>
<path d="M642.449 243.364H644.255V231.727H642.433L639.3 233.904V235.614L642.408 233.517H642.449V243.364Z" fill="#828282"/>
<path d="M647.157 243.364H655.293V241.84H649.63V241.767L652.334 239.17C654.469 237.106 655.104 236.162 655.104 234.832V234.816C655.104 232.936 653.471 231.533 651.188 231.533C648.863 231.533 647.058 233.041 647.058 235.122V235.17H648.805V235.122C648.822 233.945 649.819 233.025 651.213 233.025C652.416 233.025 653.273 233.816 653.282 234.92V234.936C653.282 235.84 652.927 236.453 651.344 238.001L647.157 242.122V243.364Z" fill="#828282"/>
<path d="M661.187 243.558C663.751 243.558 665.557 241.921 665.557 239.558V239.541C665.557 237.316 663.916 235.711 661.641 235.711C660.47 235.711 659.481 236.154 658.945 236.937H658.904L659.267 233.251H664.864V231.727H657.775L657.189 238.437H658.805C658.962 238.178 659.151 237.953 659.374 237.767C659.852 237.348 660.487 237.138 661.22 237.138C662.696 237.138 663.743 238.146 663.751 239.574V239.59C663.751 241.033 662.704 242.05 661.204 242.05C659.877 242.05 658.904 241.243 658.747 240.195L658.739 240.13H656.975L656.983 240.227C657.148 242.146 658.805 243.558 661.187 243.558Z" fill="#828282"/>
<path d="M667.997 243.485C668.599 243.485 669.077 243.017 669.077 242.429C669.077 241.832 668.599 241.372 667.997 241.372C667.387 241.372 666.909 241.832 666.909 242.429C666.909 243.017 667.387 243.485 667.997 243.485Z" fill="#828282"/>
<path d="M676.537 243.364H678.31V241.05H679.95V239.533H678.31V231.727H675.639L670.585 239.477V241.05H676.537V243.364ZM672.3 239.558V239.509L676.504 233.154H676.554V239.558H672.3Z" fill="#828282"/>
<path d="M685.605 243.558C688.169 243.558 689.975 241.921 689.975 239.558V239.541C689.975 237.316 688.334 235.711 686.059 235.711C684.888 235.711 683.899 236.154 683.363 236.937H683.322L683.685 233.251H689.282V231.727H682.193L681.607 238.437H683.223C683.38 238.178 683.569 237.953 683.792 237.767C684.27 237.348 684.905 237.138 685.638 237.138C687.114 237.138 688.161 238.146 688.169 239.574V239.59C688.169 241.033 687.122 242.05 685.622 242.05C684.295 242.05 683.322 241.243 683.165 240.195L683.157 240.13H681.393L681.401 240.227C681.566 242.146 683.223 243.558 685.605 243.558Z" fill="#828282"/>
<g opacity="0.5">
<path d="M715.421 259.877H720.524V258.815H717.137V258.759L718.737 257.239C720.016 256.012 720.413 255.433 720.413 254.577V254.567C720.413 253.369 719.397 252.489 717.942 252.489C716.468 252.489 715.351 253.44 715.351 254.769V254.804H716.568V254.769C716.584 254.069 717.147 253.531 717.952 253.531C718.652 253.531 719.14 253.994 719.145 254.643V254.653C719.145 255.191 718.939 255.559 717.988 256.49L715.421 258.991V259.877Z" fill="white"/>
<path d="M724.303 260.002C725.869 260.002 727.016 258.951 727.016 257.486V257.476C727.016 256.112 726.035 255.106 724.636 255.106C723.649 255.106 722.925 255.609 722.638 256.273H722.613C722.613 256.193 722.613 256.117 722.618 256.042C722.668 254.668 723.156 253.551 724.324 253.551C724.973 253.551 725.421 253.873 725.612 254.371L725.632 254.416H726.92L726.91 254.361C726.679 253.264 725.677 252.489 724.334 252.489C722.482 252.489 721.37 253.923 721.37 256.324V256.334C721.37 258.88 722.698 260.002 724.303 260.002ZM722.834 257.506V257.501C722.834 256.691 723.468 256.107 724.298 256.107C725.129 256.107 725.738 256.696 725.738 257.521V257.531C725.738 258.316 725.094 258.94 724.283 258.94C723.473 258.94 722.834 258.311 722.834 257.506Z" fill="white"/>
<path d="M730.821 260.002C732.597 260.002 733.674 258.558 733.674 256.248V256.238C733.674 253.928 732.597 252.489 730.821 252.489C729.039 252.489 727.967 253.928 727.967 256.238V256.248C727.967 258.558 729.039 260.002 730.821 260.002ZM730.821 258.94C729.839 258.94 729.276 257.924 729.276 256.248V256.238C729.276 254.562 729.839 253.556 730.821 253.556C731.797 253.556 732.366 254.562 732.366 256.238V256.248C732.366 257.924 731.797 258.94 730.821 258.94Z" fill="white"/>
</g>
<g opacity="0.5">
<path d="M715.421 294.232H720.524V293.17H717.137V293.115L718.737 291.595C720.016 290.367 720.413 289.788 720.413 288.933V288.923C720.413 287.725 719.397 286.844 717.942 286.844C716.468 286.844 715.351 287.795 715.351 289.124V289.159H716.568V289.124C716.584 288.424 717.147 287.886 717.952 287.886C718.652 287.886 719.14 288.349 719.145 288.998V289.008C719.145 289.547 718.939 289.914 717.988 290.845L715.421 293.346V294.232Z" fill="white"/>
<path d="M724.787 294.232H726.025V292.838H727.011V291.771H726.025V286.97H724.178L721.163 291.731V292.838H724.787V294.232ZM722.331 291.801V291.766L724.777 287.951H724.807V291.801H722.331Z" fill="white"/>
<path d="M730.524 294.358C732.129 294.358 733.251 293.331 733.251 291.837V291.826C733.251 290.448 732.255 289.446 730.871 289.446C730.141 289.446 729.542 289.733 729.225 290.221H729.2L729.401 288.032H732.824V286.97H728.365L728.017 291.192H729.15C729.235 291.031 729.356 290.89 729.492 290.78C729.769 290.548 730.126 290.422 730.539 290.422C731.389 290.422 731.998 291.016 731.998 291.847V291.857C731.998 292.707 731.399 293.301 730.534 293.301C729.769 293.301 729.215 292.833 729.11 292.224L729.105 292.189H727.887L727.892 292.254C727.987 293.457 729.014 294.358 730.524 294.358Z" fill="white"/>
</g>
<g opacity="0.5">
<path d="M715.421 328.587H720.524V327.526H717.137V327.47L718.737 325.95C720.016 324.722 720.413 324.144 720.413 323.288V323.278C720.413 322.08 719.397 321.2 717.942 321.2C716.468 321.2 715.351 322.151 715.351 323.479V323.515H716.568V323.479C716.584 322.78 717.147 322.241 717.952 322.241C718.652 322.241 719.14 322.704 719.145 323.354V323.364C719.145 323.902 718.939 324.27 717.988 325.201L715.421 327.702V328.587Z" fill="white"/>
<path d="M724.112 328.713C725.718 328.713 726.825 327.828 726.825 326.564V326.554C726.825 325.548 726.115 324.914 725.043 324.813V324.788C725.914 324.607 726.568 324.008 726.568 323.107V323.097C726.568 321.97 725.597 321.2 724.097 321.2C722.633 321.2 721.641 322.015 721.536 323.243L721.531 323.303H722.738L722.743 323.253C722.809 322.629 723.332 322.231 724.097 322.231C724.877 322.231 725.32 322.614 725.32 323.268V323.278C725.32 323.912 724.787 324.365 723.986 324.365H723.156V325.331H724.017C724.943 325.331 725.506 325.754 725.506 326.519V326.529C725.506 327.188 724.948 327.651 724.107 327.651C723.257 327.651 722.693 327.224 722.623 326.635L722.618 326.579H721.375L721.38 326.64C721.48 327.858 722.517 328.713 724.112 328.713Z" fill="white"/>
<path d="M730.579 328.713C732.356 328.713 733.433 327.269 733.433 324.959V324.949C733.433 322.639 732.356 321.2 730.579 321.2C728.798 321.2 727.726 322.639 727.726 324.949V324.959C727.726 327.269 728.798 328.713 730.579 328.713ZM730.579 327.651C729.598 327.651 729.034 326.635 729.034 324.959V324.949C729.034 323.273 729.598 322.267 730.579 322.267C731.555 322.267 732.124 323.273 732.124 324.949V324.959C732.124 326.635 731.555 327.651 730.579 327.651Z" fill="white"/>
</g>
<g opacity="0.5">
<path d="M715.421 362.943H720.524V361.881H717.137V361.826L718.737 360.306C720.016 359.078 720.413 358.499 720.413 357.644V357.634C720.413 356.436 719.397 355.555 717.942 355.555C716.468 355.555 715.351 356.506 715.351 357.835V357.87H716.568V357.835C716.584 357.136 717.147 356.597 717.952 356.597C718.652 356.597 719.14 357.06 719.145 357.709V357.719C719.145 358.258 718.939 358.625 717.988 359.556L715.421 362.057V362.943Z" fill="white"/>
<path d="M723.332 362.943H724.605V355.681H723.322L721.425 357.015V358.207L723.302 356.919H723.332V362.943Z" fill="white"/>
<path d="M728.994 363.069C730.599 363.069 731.721 362.042 731.721 360.548V360.538C731.721 359.159 730.725 358.157 729.341 358.157C728.611 358.157 728.012 358.444 727.695 358.932H727.67L727.872 356.743H731.294V355.681H726.835L726.488 359.903H727.62C727.705 359.742 727.826 359.601 727.962 359.491C728.239 359.259 728.596 359.133 729.009 359.133C729.859 359.133 730.468 359.727 730.468 360.558V360.568C730.468 361.418 729.869 362.012 729.004 362.012C728.239 362.012 727.685 361.544 727.58 360.935L727.575 360.9H726.357L726.362 360.965C726.457 362.168 727.484 363.069 728.994 363.069Z" fill="white"/>
</g>
<g opacity="0.5">
<path d="M715.421 397.299H720.524V396.237H717.137V396.181L718.737 394.661C720.016 393.434 720.413 392.855 720.413 391.999V391.989C720.413 390.791 719.397 389.911 717.942 389.911C716.468 389.911 715.351 390.862 715.351 392.191V392.226H716.568V392.191C716.584 391.491 717.147 390.953 717.952 390.953C718.652 390.953 719.14 391.415 719.145 392.065V392.075C719.145 392.613 718.939 392.981 717.988 393.912L715.421 396.413V397.299Z" fill="white"/>
<path d="M724.228 397.424C726.004 397.424 727.081 395.98 727.081 393.67V393.66C727.081 391.35 726.004 389.911 724.228 389.911C722.446 389.911 721.375 391.35 721.375 393.66V393.67C721.375 395.98 722.446 397.424 724.228 397.424ZM724.228 396.362C723.247 396.362 722.683 395.346 722.683 393.67V393.66C722.683 391.984 723.247 390.978 724.228 390.978C725.204 390.978 725.773 391.984 725.773 393.66V393.67C725.773 395.346 725.204 396.362 724.228 396.362Z" fill="white"/>
<path d="M730.8 397.424C732.577 397.424 733.654 395.98 733.654 393.67V393.66C733.654 391.35 732.577 389.911 730.8 389.911C729.019 389.911 727.947 391.35 727.947 393.66V393.67C727.947 395.98 729.019 397.424 730.8 397.424ZM730.8 396.362C729.819 396.362 729.256 395.346 729.256 393.67V393.66C729.256 391.984 729.819 390.978 730.8 390.978C731.777 390.978 732.345 391.984 732.345 393.66V393.67C732.345 395.346 731.777 396.362 730.8 396.362Z" fill="white"/>
</g>
<path d="M490.668 219.509H493.486V211.91H501.287V209.532H493.486V203.782H502.004V201.354H490.668V219.509Z" fill="white"/>
<path d="M512.22 219.811C516.234 219.811 519.24 217.383 519.807 213.772L519.819 213.646H517.026L516.988 213.759C516.309 216.062 514.636 217.32 512.22 217.32C508.861 217.32 506.684 214.627 506.684 210.425V210.413C506.684 206.21 508.848 203.543 512.22 203.543C514.661 203.543 516.347 204.839 516.951 206.965L517.026 207.217H519.819L519.794 207.104C519.228 203.518 516.221 201.052 512.22 201.052C507.074 201.052 503.803 204.65 503.803 210.413V210.425C503.803 216.187 507.074 219.811 512.22 219.811Z" fill="white"/>
<path d="M520.499 219.509H523.619L528.173 212.577H528.274L532.803 219.509H536.1L530.06 210.475V210.425L536.213 201.354H533.03L528.526 208.387H528.412L523.921 201.354H520.562L526.538 210.337V210.375L520.499 219.509Z" fill="white"/>
<g opacity="0.7" filter="url(#filter2_d)">
<rect x="309" y="440" width="92" height="94" rx="20" fill="white"/>
</g>
<path d="M346.678 491.868L351.916 485.06L357.891 489.753L363.017 483.138" stroke="url(#paint2_linear)" stroke-width="3" stroke-linecap="round" stroke-linejoin="round"/>
<ellipse cx="368.992" cy="473.35" rx="3.36384" ry="3.36384" stroke="url(#paint3_linear)" stroke-width="3" stroke-linecap="round" stroke-linejoin="round"/>
<path d="M360.118 471.46H347.399C342.129 471.46 338.862 475.192 338.862 480.462V494.607C338.862 499.877 342.065 503.593 347.399 503.593H362.457C367.727 503.593 370.994 499.877 370.994 494.607V482.289" stroke="url(#paint4_linear)" stroke-width="3" stroke-linecap="round" stroke-linejoin="round"/>
<defs>
<filter id="filter0_d" x="0" y="9" width="587" height="593" filterUnits="userSpaceOnUse" color-interpolation-filters="sRGB">
<feFlood flood-opacity="0" result="BackgroundImageFix"/>
<feColorMatrix in="SourceAlpha" type="matrix" values="0 0 0 0 0 0 0 0 0 0 0 0 0 0 0 0 0 0 127 0"/>
<feOffset dy="20"/>
<feGaussianBlur stdDeviation="90"/>
<feColorMatrix type="matrix" values="0 0 0 0 0 0 0 0 0 0 0 0 0 0 0 0 0 0 0.1 0"/>
<feBlend mode="normal" in2="BackgroundImageFix" result="effect1_dropShadow"/>
<feBlend mode="normal" in="SourceGraphic" in2="effect1_dropShadow" result="shape"/>
</filter>
<filter id="filter1_d" x="466" y="238.191" width="285" height="138.691" filterUnits="userSpaceOnUse" color-interpolation-filters="sRGB">
<feFlood flood-opacity="0" result="BackgroundImageFix"/>
<feColorMatrix in="SourceAlpha" type="matrix" values="0 0 0 0 0 0 0 0 0 0 0 0 0 0 0 0 0 0 127 0"/>
<feOffset dy="12"/>
<feGaussianBlur stdDeviation="2"/>
<feColorMatrix type="matrix" values="0 0 0 0 0 0 0 0 0 0 0 0 0 0 0 0 0 0 0.55 0"/>
<feBlend mode="normal" in2="BackgroundImageFix" result="effect1_dropShadow"/>
<feBlend mode="normal" in="SourceGraphic" in2="effect1_dropShadow" result="shape"/>
</filter>
<filter id="filter2_d" x="129" y="280" width="452" height="454" filterUnits="userSpaceOnUse" color-interpolation-filters="sRGB">
<feFlood flood-opacity="0" result="BackgroundImageFix"/>
<feColorMatrix in="SourceAlpha" type="matrix" values="0 0 0 0 0 0 0 0 0 0 0 0 0 0 0 0 0 0 127 0"/>
<feOffset dy="20"/>
<feGaussianBlur stdDeviation="90"/>
<feColorMatrix type="matrix" values="0 0 0 0 0 0 0 0 0 0 0 0 0 0 0 0 0 0 0.3 0"/>
<feBlend mode="normal" in2="BackgroundImageFix" result="effect1_dropShadow"/>
<feBlend mode="normal" in="SourceGraphic" in2="effect1_dropShadow" result="shape"/>
</filter>
<linearGradient id="paint0_linear" x1="181.834" y1="-31.68" x2="1263.22" y2="278.269" gradientUnits="userSpaceOnUse">
<stop stop-color="#1A88C9"/>
<stop offset="1" stop-color="#9149FF"/>
</linearGradient>
<linearGradient id="paint1_linear" x1="458.331" y1="167.151" x2="962.192" y2="338.117" gradientUnits="userSpaceOnUse">
<stop stop-color="#1A88C9"/>
<stop offset="1" stop-color="#9149FF"/>
</linearGradient>
<linearGradient id="paint2_linear" x1="345.983" y1="482.657" x2="371.76" y2="496.485" gradientUnits="userSpaceOnUse">
<stop stop-color="#1A88C9"/>
<stop offset="1" stop-color="#9149FF"/>
</linearGradient>
<linearGradient id="paint3_linear" x1="365.342" y1="469.617" x2="377.972" y2="473.237" gradientUnits="userSpaceOnUse">
<stop stop-color="#1A88C9"/>
<stop offset="1" stop-color="#9149FF"/>
</linearGradient>
<linearGradient id="paint4_linear" x1="337.494" y1="469.693" x2="397.82" y2="486.984" gradientUnits="userSpaceOnUse">
<stop stop-color="#1A88C9"/>
<stop offset="1" stop-color="#9149FF"/>
</linearGradient>
</defs>
</svg>
