<svg xmlns="http://www.w3.org/2000/svg" width="375" viewBox="0 0 375 375" height="375" version="1.0"><g fill="#FFDE59"><g><g><path d="M 3.734375 -47.769531 C 2.832031 -47.769531 2.316406 -47.320312 2.316406 -46.355469 L 2.316406 -36.054688 C 2.316406 -34.957031 2.832031 -34.441406 3.734375 -34.441406 L 15.195312 -34.441406 L 15.195312 -1.417969 C 15.195312 -0.449219 15.707031 0 16.609375 0 L 29.101562 0 C 30.128906 0 30.644531 -0.449219 30.644531 -1.417969 L 30.644531 -34.441406 L 42.167969 -34.441406 C 43.003906 -34.441406 43.585938 -35.410156 43.585938 -36.054688 L 43.585938 -46.355469 C 43.585938 -47.320312 42.941406 -47.769531 42.167969 -47.769531 Z M 3.734375 -47.769531" transform="translate(85.432 120.65)"/></g></g></g><g fill="#FFDE59"><g><g><path d="M 6.695312 -47.769531 C 5.792969 -47.769531 5.277344 -47.125 5.277344 -46.355469 L 5.277344 -1.417969 C 5.277344 -0.449219 5.792969 0 6.695312 0 L 39.980469 0 C 40.945312 0 41.652344 -0.578125 41.652344 -1.609375 L 41.652344 -10.6875 C 41.652344 -11.589844 41.011719 -12.101562 40.238281 -12.101562 L 20.085938 -12.101562 L 20.085938 -18.347656 L 33.347656 -18.347656 C 34.25 -18.347656 34.765625 -19.054688 34.765625 -19.507812 L 34.765625 -28.199219 C 34.765625 -28.84375 34.121094 -29.292969 33.347656 -29.292969 L 20.085938 -29.292969 L 20.085938 -35.859375 L 39.53125 -35.859375 C 40.429688 -35.859375 40.945312 -36.824219 40.945312 -37.46875 L 40.945312 -46.355469 C 40.945312 -47.320312 40.300781 -47.769531 39.53125 -47.769531 Z M 6.695312 -47.769531" transform="translate(131.586 120.65)"/></g></g></g><g fill="#FFDE59"><g><g><path d="M 33.734375 -46.355469 C 33.542969 -46.996094 32.832031 -47.769531 32.125 -47.769531 L 19.378906 -47.769531 C 18.671875 -47.769531 17.898438 -47.0625 17.769531 -46.355469 L 1.800781 -1.417969 C 1.480469 -0.449219 1.738281 0 2.703125 0 L 15 0 C 16.03125 0 16.738281 -0.449219 17.125 -1.417969 L 18.863281 -6.953125 L 32.640625 -6.953125 L 34.378906 -1.417969 C 34.765625 -0.449219 35.472656 0 36.503906 0 L 48.863281 0 C 49.765625 0 50.023438 -0.449219 49.703125 -1.417969 Z M 25.753906 -30.964844 L 28.777344 -18.800781 L 22.726562 -18.800781 Z M 25.753906 -30.964844" transform="translate(176.067 120.65)"/></g></g></g><g fill="#FFDE59"><g><g><path d="M 54.53125 -46.355469 C 54.402344 -47.125 53.820312 -47.769531 52.855469 -47.769531 L 37.917969 -47.769531 C 36.890625 -47.769531 36.246094 -47.320312 35.988281 -46.355469 L 30.453125 -23.886719 L 25.042969 -46.355469 C 24.65625 -47.320312 24.015625 -47.769531 23.113281 -47.769531 L 8.113281 -47.769531 C 7.210938 -47.769531 6.632812 -47.125 6.503906 -46.355469 L 2.125 -1.417969 C 2.125 -0.449219 2.445312 0 3.476562 0 L 15.835938 0 C 16.933594 0 17.382812 -0.449219 17.445312 -1.417969 L 19.183594 -20.023438 L 23.304688 -1.417969 C 23.371094 -0.644531 24.140625 0 24.785156 0 L 36.246094 0 C 36.890625 0 37.535156 -0.773438 37.664062 -1.417969 L 41.71875 -20.152344 L 43.519531 -1.417969 C 43.585938 -0.449219 44.101562 0 45.195312 0 L 57.554688 0 C 58.585938 0 58.90625 -0.449219 58.90625 -1.417969 Z M 54.53125 -46.355469" transform="translate(227.756 120.65)"/></g></g></g><g fill="#FFDE59"><g><g><path d="M 5.265625 -103.59375 C 5.265625 -101.25 6.632812 -99.105469 9.167969 -99.105469 C 9.363281 -99.300781 9.363281 -99.300781 9.558594 -99.300781 C 9.949219 -99.300781 10.339844 -99.300781 10.730469 -99.496094 L 24.191406 -106.128906 L 24.191406 -4.097656 C 24.191406 -2.144531 25.167969 0 28.484375 0 L 66.136719 0 C 69.453125 0 70.816406 -1.367188 70.816406 -4.292969 L 70.816406 -140.464844 C 70.816406 -143 68.085938 -144.757812 66.136719 -144.757812 L 28.484375 -144.757812 C 26.921875 -144.757812 25.945312 -144.5625 25.363281 -143.976562 L 9.558594 -135.976562 C 6.632812 -134.417969 5.265625 -132.269531 5.265625 -129.929688 Z M 5.265625 -103.59375" transform="translate(86.155 311.132)"/></g></g></g><g fill="#FFDE59"><g><g><path d="M 6.632812 -47.40625 C 6.632812 -18.144531 27.703125 1.753906 61.453125 1.753906 C 95.59375 1.753906 115.6875 -19.3125 115.6875 -46.820312 C 115.6875 -60.28125 109.25 -71.011719 98.519531 -79.792969 C 103.203125 -85.839844 106.519531 -95.59375 106.519531 -103.398438 C 106.519531 -126.222656 85.058594 -145.925781 61.453125 -145.925781 C 37.261719 -145.925781 17.167969 -126.222656 17.167969 -103.398438 C 17.167969 -95.789062 20.289062 -86.035156 24.191406 -79.792969 C 14.242188 -71.792969 6.632812 -62.039062 6.632812 -47.601562 Z M 50.136719 -48.382812 C 50.136719 -54.234375 54.820312 -59.699219 61.84375 -59.699219 C 68.476562 -59.699219 72.769531 -54.429688 72.769531 -48.578125 C 72.769531 -42.726562 67.5 -37.847656 61.84375 -37.847656 C 55.796875 -37.847656 50.136719 -42.726562 50.136719 -48.382812 Z M 54.234375 -100.863281 C 54.234375 -104.761719 57.746094 -107.886719 61.84375 -107.886719 C 65.550781 -107.886719 69.257812 -104.761719 69.257812 -100.863281 C 69.257812 -96.765625 65.550781 -93.449219 61.84375 -93.449219 C 57.746094 -93.449219 54.234375 -96.765625 54.234375 -100.863281 Z M 54.234375 -100.863281" transform="translate(166.142 311.132)"/></g></g></g></svg>