<svg width="30" height="30" viewBox="0 0 30 30" fill="none" xmlns="http://www.w3.org/2000/svg">
<circle cx="15" cy="15" r="15" fill="#3A9CD7"/>
<path d="M14.0486 8.7444C14.0486 10.4566 14.0486 12.135 14.0486 13.8319C15.9893 13.8319 17.9161 13.8319 19.8522 13.8319C19.8522 14.4149 19.8522 14.981 19.8522 15.567C17.9146 15.567 15.9877 15.567 14.0486 15.567C14.0486 16.6318 14.0486 17.6781 14.0486 18.7383C15.1486 18.7383 16.2363 18.7383 17.3393 18.7383C17.3393 19.3105 17.3393 19.8705 17.3393 20.452C17.2626 20.452 17.1905 20.452 17.1199 20.452C16.1549 20.452 15.19 20.4551 14.225 20.4489C14.0793 20.4474 14.0317 20.4827 14.0332 20.6361C14.0409 21.4492 14.0332 22.2608 14.0409 23.074C14.0424 23.2243 14.001 23.2657 13.8507 23.2642C13.2754 23.255 12.7001 23.2611 12.1232 23.2611C12.068 23.2611 12.0128 23.2611 11.9376 23.2611C11.9376 22.3207 11.9376 21.3986 11.9376 20.4566C11.2825 20.4566 10.6474 20.4566 10 20.4566C10 19.8813 10 19.3259 10 18.7505C10.6336 18.7505 11.2672 18.7505 11.9269 18.7505C11.9269 14.8245 11.9269 10.9184 11.9269 7C14.8601 7 17.7689 7 20.6883 7C20.6883 7.57993 20.6883 8.15219 20.6883 8.74593C18.4776 8.7444 16.2685 8.7444 14.0486 8.7444Z" fill="white"/>
</svg>
