<svg width="30" height="30" viewBox="0 0 30 30" fill="none" xmlns="http://www.w3.org/2000/svg">
<circle cx="15" cy="15" r="15" fill="#6E7191"/>
<g clip-path="url(#clip0)">
<path d="M6.77301 15.7568C6.77301 15.2436 6.77125 14.7321 6.77125 14.2189C6.21255 14.4047 5.54106 14.1729 5.21676 13.6791C4.92419 13.2367 4.92419 12.5837 5.23791 12.1501C5.58335 11.6723 6.35179 11.5749 6.90344 11.674C7.02152 11.6953 7.14842 11.7253 7.26122 11.6811C7.40221 11.6245 7.47447 11.4705 7.53616 11.3307C8.78222 8.52212 11.5546 6.45329 14.5913 6.06926C17.628 5.68523 20.8269 6.99129 22.7286 9.40168C22.9189 9.64236 23.1022 9.98215 22.933 10.2388C22.7973 10.4458 22.51 10.4706 22.2633 10.4741C21.8297 10.4812 21.3944 10.4901 20.9608 10.4971C20.7299 10.5007 20.4938 10.506 20.2699 10.4476C19.8928 10.3503 19.5843 10.0883 19.2671 9.86358C17.8959 8.89376 16.1211 8.51858 14.4767 8.85306C12.8324 9.18754 11.3431 10.2264 10.4566 11.6563C11.7837 11.6563 13.1108 11.6563 14.438 11.6581C14.7217 11.6581 15.0125 11.6599 15.2804 11.7554C15.7668 11.9306 16.1123 12.435 16.1052 12.9535C16.0982 13.4721 15.7457 13.9658 15.2593 14.1428C14.9773 14.2454 14.6688 14.2454 14.3692 14.2454C12.7478 14.2419 11.1245 14.2401 9.50306 14.2366C9.50306 14.741 9.50306 15.2471 9.50306 15.7515C11.1192 15.7497 12.7354 15.748 14.3498 15.7462C14.6724 15.7462 15.0055 15.748 15.3051 15.8683C15.7774 16.0594 16.107 16.5585 16.0982 17.0699C16.0894 17.5814 15.7422 18.0681 15.2645 18.2433C14.9861 18.3442 14.6847 18.3442 14.3886 18.3442C13.0703 18.3406 11.752 18.3371 10.4354 18.3335C11.3536 19.806 12.9081 20.8607 14.6124 21.1669C16.315 21.4731 18.1391 21.0218 19.5068 19.9599C19.6883 19.8183 19.8663 19.6644 20.0831 19.5847C20.3017 19.5033 20.5396 19.5051 20.7722 19.5069C21.2728 19.5104 21.7733 19.514 22.2738 19.5193C22.5012 19.521 22.7621 19.537 22.903 19.7157C23.1093 19.9741 22.9171 20.3546 22.7109 20.613C20.8004 23.0233 17.5928 24.3276 14.549 23.9294C11.5052 23.5313 8.73992 21.4447 7.50796 18.622C7.4639 18.5229 7.41807 18.4149 7.3229 18.3619C7.24712 18.3176 7.15371 18.3176 7.06735 18.3212C6.71309 18.3353 6.35179 18.3973 6.00634 18.3176C5.30841 18.1548 4.84136 17.3372 5.04933 16.6488C5.2573 15.9603 6.10152 15.5462 6.77125 15.8028C6.77301 15.7869 6.77301 15.7727 6.77301 15.7568Z" fill="white"/>
</g>
<defs>
<clipPath id="clip0">
<rect width="18" height="18" fill="white" transform="translate(5 6)"/>
</clipPath>
</defs>
</svg>
