<svg width="31" height="31" viewBox="0 0 31 31" fill="none" xmlns="http://www.w3.org/2000/svg">
<path d="M20.9898 20.4631C20.9898 19.0527 20.9898 17.6663 20.9898 16.2668C20.7441 16.1897 20.4948 16.1222 20.2539 16.0331C19.8673 15.8898 19.477 15.7525 19.1049 15.5754C17.5981 14.8576 17.067 13.6254 17.1476 12.1235C17.2356 10.4806 18.2967 9.12682 20.3479 8.77031C20.5562 8.73417 20.7658 8.70767 20.9946 8.67395C20.9946 8.36561 20.9898 8.06089 20.9971 7.75616C21.0007 7.61645 21.0139 7.47191 21.0501 7.33702C21.1187 7.08649 21.3006 6.96484 21.5656 6.96484C21.8341 6.96484 22.0184 7.08408 22.0859 7.33099C22.1232 7.46469 22.1316 7.60922 22.1365 7.75014C22.1437 8.0103 22.1437 8.26926 22.1365 8.52942C22.1328 8.64745 22.169 8.68961 22.2918 8.70527C22.5604 8.73899 22.8302 8.78235 23.0928 8.84739C24.461 9.18464 25.3511 10.0458 25.7895 11.3731C25.9244 11.7826 25.8943 12.1897 25.5956 12.5414C25.0536 13.1774 24.0515 13.0509 23.6974 12.2957C23.63 12.1524 23.5914 11.9958 23.542 11.8453C23.3168 11.1635 22.8567 10.7227 22.1533 10.4903C22.1485 10.5637 22.1413 10.6191 22.1413 10.6733C22.1401 11.8067 22.1425 12.9401 22.1377 14.0747C22.1377 14.2024 22.1738 14.2566 22.3003 14.2939C22.87 14.4673 23.4457 14.6239 23.9985 14.8407C25.5848 15.4622 26.4953 17.0593 26.2533 18.7455C25.9967 20.5329 24.7838 21.8108 22.9699 22.1963C22.7447 22.2444 22.5171 22.283 22.2894 22.3034C22.1605 22.3155 22.1377 22.3685 22.1377 22.4805C22.1413 23.1827 22.1437 23.8861 22.1365 24.5883C22.134 24.7942 22.1184 25.0014 22.0823 25.2038C22.0341 25.4723 21.8847 25.5844 21.6137 25.5964C21.3259 25.6097 21.1344 25.5013 21.0633 25.2531C21.0199 25.1026 20.9983 24.94 20.9971 24.7834C20.9898 24.0391 20.9934 23.2959 20.9934 22.5516C20.9934 22.4877 20.9934 22.4227 20.9934 22.3589C20.6658 22.2926 20.3455 22.2432 20.0335 22.1613C18.9194 21.8698 18.0064 21.2809 17.3596 20.3125C17.0248 19.8115 16.8309 19.261 16.7887 18.6588C16.755 18.1674 16.961 17.7904 17.3777 17.5507C17.7993 17.3098 18.2389 17.3315 18.6556 17.5844C18.8543 17.7061 18.9688 17.8976 19.0471 18.1156C19.1735 18.4709 19.2928 18.8298 19.4409 19.1767C19.7348 19.8548 20.2648 20.2619 20.9898 20.4631ZM22.1485 20.5353C22.9844 20.4715 23.7938 19.8187 23.9853 19.0358C24.1274 18.4565 24.0925 17.8855 23.6625 17.4218C23.2578 16.9858 22.7146 16.7835 22.1485 16.5968C22.1485 17.9205 22.1485 19.2225 22.1485 20.5353ZM20.9898 10.4529C20.6345 10.5493 20.3105 10.6842 20.0166 10.8841C19.3542 11.3322 19.1543 12.427 19.636 13.0714C19.9709 13.5194 20.4791 13.7049 20.991 13.9085C20.9898 12.7498 20.9898 11.6176 20.9898 10.4529Z" fill="white"/>
<path d="M9.81115 22.3383C8.95358 22.3287 7.94185 22.2095 7.01082 21.7337C5.88225 21.1568 5.12104 20.2631 4.79102 19.0285C4.73442 18.8153 4.72358 18.5841 4.72719 18.3625C4.73562 17.8879 5.07166 17.4579 5.51971 17.3158C6.01474 17.1592 6.48206 17.2905 6.78558 17.6976C6.91446 17.8711 7.00961 18.0698 7.10717 18.2649C7.23364 18.5178 7.33842 18.7816 7.4673 19.0333C7.86115 19.8006 8.49228 20.233 9.34864 20.3317C10.0316 20.41 10.7048 20.3775 11.348 20.1053C11.7069 19.9535 12.0189 19.7331 12.261 19.4236C12.8235 18.7033 12.6922 17.6976 11.9671 17.1436C11.5395 16.816 11.0349 16.6714 10.5278 16.5329C9.69191 16.3041 8.84518 16.1126 8.02134 15.8476C7.50464 15.6814 6.99395 15.4537 6.52783 15.1755C4.33213 13.8627 4.52605 10.6649 6.58806 9.44235C7.32397 9.00634 8.12011 8.77388 8.96202 8.68596C9.98579 8.57876 11.0023 8.60165 11.9948 8.91239C12.8247 9.17255 13.5449 9.60736 14.0857 10.2999C14.4832 10.8082 14.7241 11.3791 14.6542 12.0379C14.5771 12.7654 13.899 13.2496 13.1908 13.0798C13.0234 13.04 12.8415 12.9389 12.7319 12.81C12.5416 12.5884 12.4019 12.3234 12.2429 12.0765C12.0876 11.8332 11.9466 11.5802 11.7768 11.3478C11.4661 10.9238 11.0433 10.6721 10.5206 10.5962C9.87619 10.4999 9.23783 10.4974 8.61514 10.7203C8.2815 10.8395 7.99003 11.0274 7.75757 11.2972C7.32277 11.8019 7.35047 12.4932 7.82984 12.9557C8.18756 13.3014 8.63561 13.4893 9.10294 13.6206C10.0617 13.8892 11.0276 14.1361 11.9864 14.4059C12.5609 14.5685 13.1077 14.8033 13.622 15.1129C14.6819 15.75 15.2107 16.6967 15.248 17.9216C15.3082 19.9054 14.2122 21.3904 12.2357 22.0204C11.572 22.2324 10.8229 22.3383 9.81115 22.3383Z" fill="white"/>
<path fill-rule="evenodd" clip-rule="evenodd" d="M0 15.506C-0.00240826 6.94242 6.9364 0.00240952 15.5012 0C24.0624 -0.00240826 31.0036 6.94242 31 15.506C30.9964 24.0744 24.0612 31.0024 15.4928 31C6.93519 30.9976 0.00240952 24.0624 0 15.506ZM20.9899 20.4635C20.2648 20.2624 19.7336 19.8553 19.4421 19.1748C19.3242 18.8987 19.2246 18.615 19.1251 18.3315C19.0996 18.2588 19.0741 18.1862 19.0483 18.1136C18.9712 17.8956 18.8568 17.7041 18.6568 17.5825C18.2401 17.3296 17.8005 17.3079 17.3789 17.5488C16.9622 17.7872 16.7562 18.1654 16.79 18.6568C16.8309 19.2591 17.026 19.8095 17.3609 20.3106C18.0089 21.2789 18.9218 21.8679 20.0347 22.1594C20.2507 22.2161 20.4701 22.2572 20.6938 22.2991L20.6938 22.2991C20.7932 22.3177 20.8935 22.3365 20.9947 22.3569V22.5496C20.9947 22.7343 20.9945 22.9188 20.9942 23.1033L20.9942 23.1079V23.108C20.9935 23.6658 20.9929 24.2233 20.9983 24.7815C20.9995 24.9392 21.0212 25.1006 21.0645 25.2512C21.1356 25.4993 21.3271 25.6077 21.615 25.5945C21.886 25.5824 22.0353 25.4704 22.0835 25.2018C22.1196 24.9995 22.1353 24.7923 22.1377 24.5863C22.1437 23.8841 22.1425 23.1807 22.1389 22.4786C22.1389 22.3653 22.1606 22.3123 22.2907 22.3015C22.5195 22.281 22.7471 22.2425 22.9712 22.1943C24.7839 21.8089 25.9979 20.531 26.2545 18.7436C26.4966 17.0585 25.586 15.4603 23.9998 14.8388C23.5704 14.6704 23.1264 14.5383 22.6832 14.4065L22.6832 14.4065C22.5558 14.3686 22.4284 14.3307 22.3015 14.2919C22.1762 14.2534 22.1389 14.1992 22.1389 14.0727C22.1421 13.3171 22.1421 12.5614 22.1421 11.8054C22.1421 11.4275 22.1421 11.0495 22.1425 10.6714C22.1425 10.6352 22.1456 10.5991 22.1491 10.5582V10.5582L22.1491 10.558C22.1509 10.5363 22.1529 10.5133 22.1546 10.4883C22.858 10.7208 23.3181 11.1616 23.5433 11.8433C23.5568 11.8844 23.5695 11.926 23.5823 11.9676L23.5823 11.9677C23.6164 12.0784 23.6505 12.1896 23.6987 12.2938C24.0528 13.049 25.0561 13.1754 25.5969 12.5395C25.8956 12.1878 25.9257 11.7807 25.7908 11.3712C25.3524 10.0439 24.4623 9.18269 23.094 8.84544C22.8315 8.7804 22.5617 8.73825 22.2931 8.70332C22.1702 8.68766 22.1353 8.64551 22.1377 8.52747C22.1449 8.26731 22.1449 8.00835 22.1377 7.74819C22.1341 7.60727 22.1244 7.46274 22.0871 7.32905C22.0185 7.08214 21.8342 6.9629 21.5668 6.9629C21.303 6.9629 21.1199 7.08454 21.0513 7.33507C21.0139 7.46997 21.0019 7.6133 20.9983 7.75422C20.9931 7.97173 20.9941 8.18987 20.9951 8.40861V8.4087C20.9955 8.49637 20.9959 8.58414 20.9959 8.672C20.9238 8.68262 20.8537 8.69252 20.7849 8.70224C20.6352 8.72337 20.4919 8.7436 20.3491 8.76836C18.2967 9.12367 17.2368 10.4787 17.1489 12.1215C17.0682 13.6235 17.5993 14.8556 19.1061 15.5735C19.4246 15.7255 19.7581 15.8482 20.0908 15.9705L20.2551 16.0312C20.4221 16.0929 20.5931 16.1443 20.7642 16.1957L20.7642 16.1957C20.84 16.2184 20.9157 16.2412 20.9911 16.2648C20.9899 17.6668 20.9899 19.0531 20.9899 20.4635ZM9.81141 22.3376C10.8231 22.3364 11.5723 22.2304 12.236 22.0197C14.2124 21.3897 15.3085 19.9047 15.2483 17.9209C15.2109 16.696 14.6822 15.7493 13.6223 15.1122C13.108 14.8038 12.5612 14.5678 11.9866 14.4052C11.4851 14.2634 10.9817 14.1286 10.4783 13.9938L10.4781 13.9937L10.478 13.9937C10.0191 13.8708 9.56033 13.7479 9.10319 13.6199C8.63467 13.4886 8.18782 13.3007 7.8301 12.955C7.35193 12.4925 7.32303 11.8012 7.75783 11.2965C7.99029 11.0267 8.28176 10.8388 8.61539 10.7196C9.23809 10.4967 9.87645 10.4991 10.5208 10.5931C11.0436 10.669 11.4663 10.9207 11.7771 11.3447C11.889 11.4979 11.9883 11.6605 12.0876 11.8228L12.0876 11.8229C12.1389 11.9069 12.1902 11.9908 12.2432 12.0734C12.2868 12.1414 12.3289 12.2106 12.371 12.2798L12.3711 12.2798C12.4826 12.4629 12.5941 12.646 12.7322 12.8069C12.843 12.9357 13.0249 13.0369 13.1911 13.0767C13.9005 13.2465 14.5774 12.7623 14.6545 12.0348C14.7243 11.376 14.4834 10.8039 14.086 10.2968C13.544 9.60424 12.8249 9.16944 11.9951 8.90928C11.0026 8.59853 9.98605 8.57565 8.96227 8.68284C8.12037 8.77077 7.32423 9.00323 6.58831 9.43923C4.5263 10.6605 4.33239 13.8583 6.52809 15.1724C6.99421 15.4518 7.5049 15.6783 8.0216 15.8445C8.56878 16.0205 9.12606 16.164 9.68354 16.3077L9.68367 16.3077C9.9655 16.3803 10.2474 16.453 10.5281 16.5298C11.0351 16.6683 11.5398 16.814 11.9674 17.1405C12.6924 17.6957 12.8237 18.7002 12.2612 19.4205C12.0192 19.73 11.7072 19.9492 11.3483 20.1022C10.7051 20.3744 10.0318 20.4081 9.3489 20.3286C8.49254 20.2299 7.86141 19.7987 7.46756 19.0302C7.39973 18.8977 7.33857 18.7619 7.27741 18.6261C7.22237 18.5038 7.16733 18.3816 7.10743 18.2618L7.07719 18.2015C6.98982 18.0268 6.90139 17.85 6.78584 17.6945C6.48353 17.2874 6.015 17.1561 5.51997 17.3127C5.07192 17.4548 4.73467 17.8848 4.72745 18.3594C4.72383 18.581 4.73467 18.8122 4.79128 19.0254C5.1201 20.26 5.88251 21.1537 7.01107 21.7306C7.94211 22.2088 8.95384 22.328 9.81141 22.3376ZM22.1484 20.5362V16.5977C22.7145 16.7843 23.2577 16.9867 23.6624 17.4227C24.0924 17.8864 24.1273 18.4573 23.9852 19.0367C23.7937 19.8208 22.9843 20.4736 22.1484 20.5362ZM20.9902 13.9087V10.4531C20.6337 10.5495 20.3109 10.6844 20.0158 10.8843C19.3546 11.3324 19.1547 12.4272 19.6352 13.0716C19.9541 13.4982 20.4301 13.6868 20.9168 13.8796C20.9413 13.8893 20.9658 13.8989 20.9902 13.9087Z" fill="#F84960"/>
</svg>
