<svg width="30" height="30" viewBox="0 0 30 30" fill="none" xmlns="http://www.w3.org/2000/svg">
<circle cx="15" cy="15" r="15" fill="#5664DE"/>
<path d="M14.3156 7C14.7724 7 15.2301 7 15.687 7C15.687 7.75132 15.687 8.50263 15.687 9.25891C16.7789 9.35309 17.8108 9.47418 18.7347 9.91746C19.9406 10.496 20.3529 11.3988 20.2218 12.4986C20.1035 13.4885 19.3844 14.0904 18.295 14.4282C18.0645 14.4997 17.8297 14.5634 17.5125 14.6548C17.9436 14.766 18.2848 14.8382 18.6113 14.9416C19.7538 15.302 20.6057 15.8961 20.8792 16.9342C20.9271 17.1162 20.9597 17.3003 21 17.4837C21 17.5779 21 17.6728 21 17.767C20.8423 18.155 20.7463 18.5707 20.5149 18.9262C19.8644 19.9225 18.7416 20.3566 17.4483 20.5251C16.8757 20.6002 16.292 20.615 15.6775 20.6604C15.6775 21.4492 15.6775 22.2239 15.6775 23C15.2087 23 14.7784 23 14.3036 23C14.3036 22.1963 14.3036 21.4244 14.3036 20.6235C14.0756 20.6235 13.8922 20.6243 13.7088 20.6235C12.1395 20.6158 10.5693 20.608 9 20.6009C9 20.5067 9 20.4118 9 20.3176C9.28198 20.2921 9.56567 20.2723 9.8468 20.2405C10.5933 20.1548 10.901 19.8928 10.9721 19.2781C10.997 19.0671 11.0107 18.8547 11.0116 18.6422C11.0141 16.1773 11.015 13.7123 11.0116 11.2473C11.0116 11.0122 10.9996 10.7743 10.961 10.5413C10.8676 9.9904 10.6267 9.78079 9.97022 9.67316C9.65052 9.62076 9.32483 9.59031 9.00171 9.54994C9.00171 9.45576 9.00171 9.36088 9.00171 9.2667C10.7613 9.2667 12.5209 9.2667 14.3156 9.2667C14.3156 8.47572 14.3156 7.73786 14.3156 7ZM15.7032 19.9409C17.612 19.8198 18.6267 18.9446 18.5993 17.4717C18.5753 16.1957 17.3737 15.2418 15.7032 15.1838C15.7032 16.7607 15.7032 18.3363 15.7032 19.9409ZM15.7101 10.0272C15.7101 11.4775 15.7101 12.8987 15.7101 14.3206C17.2391 14.2519 18.0885 13.5445 18.1108 12.3378C18.1356 11.015 17.24 10.1462 15.7101 10.0272ZM14.295 19.9508C14.295 18.32 14.295 16.6878 14.295 15.0485C13.9051 15.0485 13.5434 15.0485 13.1646 15.0485C13.1543 15.1533 13.1397 15.2333 13.1397 15.3141C13.138 16.6 13.1328 17.8859 13.1414 19.1712C13.1448 19.8312 13.45 20.0323 14.295 19.9508ZM14.3028 9.91534C13.2074 9.83036 13.138 9.88205 13.138 10.7559C13.138 11.8173 13.138 12.8781 13.138 13.9396C13.138 14.0649 13.138 14.191 13.138 14.3326C13.558 14.3326 13.9196 14.3326 14.3028 14.3326C14.3028 12.854 14.3028 11.3967 14.3028 9.91534Z" fill="white"/>
</svg>
