<svg width="30" height="30" viewBox="0 0 30 30" fill="none" xmlns="http://www.w3.org/2000/svg">
<g clip-path="url(#clip0)">
<path d="M29.9991 15.4545C29.9495 19.1032 28.531 22.6551 25.6459 25.5603C22.7267 28.4988 19.1525 29.9844 15.0014 29.9991C6.71395 30.027 -0.0279961 23.2732 -0.000895143 14.9921C0.0114939 11.1257 1.30692 7.72717 3.92333 4.8878C7.09646 1.44431 11.0772 -0.155058 15.7494 0.010688C17.7471 0.0819433 19.6589 0.579181 21.4607 1.44973C24.0013 2.67734 26.0563 4.47266 27.591 6.84345C29.1961 9.32344 29.989 12.049 29.9991 15.4545ZM16.197 7.55212C16.2837 7.57691 16.3526 7.60169 16.4238 7.61563C16.6979 7.6714 16.9542 7.77751 17.2043 7.89678C17.6194 8.09506 17.9694 8.37466 18.2551 8.73713C18.492 9.03687 18.6879 9.36294 18.811 9.71921C18.9179 10.029 19.0271 10.345 19.0325 10.6827C19.0356 10.8469 19.0797 10.8717 19.2447 10.8562C19.5691 10.826 19.8935 10.7927 20.2187 10.7702C20.5742 10.7462 20.9296 10.7284 21.285 10.7207C21.4042 10.7183 21.4406 10.675 21.4236 10.5673C21.374 10.2544 21.3361 9.93917 21.2703 9.63014C21.2137 9.36294 21.1448 9.09496 21.0465 8.84092C20.8459 8.31967 20.5486 7.85031 20.2157 7.40419C19.8711 6.94258 19.4398 6.57469 18.9427 6.29044C18.6453 6.12082 18.3325 5.97444 18.0174 5.84045C17.7588 5.73124 17.4877 5.65147 17.2191 5.5686C17.0743 5.52367 16.924 5.49889 16.7762 5.46636C16.6197 5.43228 16.4641 5.39201 16.3061 5.3711C16.221 5.35948 16.19 5.33547 16.1915 5.24795C16.1954 4.90561 16.1908 4.56328 16.1946 4.22172C16.1962 4.12955 16.1683 4.09702 16.0739 4.09857C15.7804 4.10322 15.4877 4.10322 15.1942 4.09857C15.0959 4.09702 15.0618 4.13032 15.0634 4.22869C15.068 4.50287 15.0649 4.77782 15.0649 5.052C15.0649 5.23943 15.0649 5.2371 14.8822 5.23633C14.6832 5.23478 14.4819 5.22161 14.2852 5.24485C14.1597 5.25957 14.1481 5.21929 14.1497 5.1186C14.1536 4.82506 14.1489 4.5323 14.152 4.23876C14.1528 4.13884 14.1187 4.09702 14.0134 4.09857C13.7277 4.10322 13.442 4.10554 13.1562 4.0978C13.0471 4.0947 13.0231 4.13575 13.0246 4.23411C13.0293 4.57644 13.0246 4.91878 13.0277 5.26034C13.0285 5.33392 13.0076 5.3618 12.9309 5.37574C12.6901 5.42066 12.447 5.46249 12.2131 5.53219C11.8554 5.63985 11.4961 5.75138 11.1523 5.89621C10.68 6.09526 10.2456 6.36634 9.85379 6.70171C9.20337 7.25858 8.72949 7.93086 8.45848 8.75107C8.35162 9.07482 8.2618 9.40166 8.23238 9.73548C8.18205 10.3094 8.1867 10.8849 8.35162 11.4487C8.47706 11.8786 8.66832 12.2736 8.91145 12.6476C9.32648 13.2851 9.90025 13.7482 10.5522 14.1177C10.8798 14.3036 11.2282 14.4538 11.572 14.6072C11.764 14.6931 11.9661 14.7582 12.1667 14.8225C12.4098 14.8999 12.6584 14.9627 12.9015 15.0393C12.9743 15.0618 13.03 15.099 13.0293 15.2051C13.0246 17.2994 13.0262 19.3944 13.0254 21.4887C13.0254 21.5267 13.0192 21.5646 13.013 21.6359C12.6669 21.4864 12.3401 21.3578 12.0242 21.2052C11.5929 20.9977 11.2057 20.7243 10.8999 20.3517C10.5383 19.911 10.2479 19.4293 10.0931 18.8724C10.0063 18.5611 9.91419 18.252 9.89096 17.926C9.8778 17.7455 9.84682 17.7292 9.66873 17.7486C9.66486 17.7494 9.66099 17.7494 9.65712 17.7494C9.27693 17.7858 8.89674 17.8253 8.51655 17.857C8.24477 17.8803 7.97144 17.895 7.69888 17.9097C7.55021 17.9182 7.54247 17.9198 7.54711 18.0646C7.56105 18.5099 7.63616 18.946 7.74301 19.3782C7.82819 19.7244 7.94743 20.0566 8.09378 20.3819C8.268 20.7692 8.49255 21.1255 8.73646 21.4694C9.01598 21.8644 9.34662 22.2144 9.72603 22.518C10.1186 22.8325 10.5344 23.1075 10.9944 23.3111C11.2096 23.4064 11.4311 23.4924 11.6548 23.5652C11.9359 23.6566 12.2216 23.734 12.5074 23.8115C12.6754 23.8572 12.8465 23.8913 13.0246 23.9331C13.0246 24.0841 13.0246 24.2297 13.0246 24.3761C13.0246 24.9252 13.0262 25.4744 13.0231 26.0235C13.0223 26.1203 13.0509 26.1552 13.1516 26.1528C13.4412 26.1466 13.7308 26.1482 14.0204 26.1521C14.0978 26.1536 14.1311 26.118 14.1435 26.0522C14.1512 26.0119 14.1497 25.9701 14.1497 25.9282C14.1497 25.3489 14.1512 24.7703 14.1481 24.191C14.1474 24.0988 14.1745 24.0617 14.2705 24.0694C14.4873 24.0872 14.7041 24.1073 14.9217 24.1089C15.0363 24.1104 15.0672 24.1445 15.0665 24.2568C15.061 24.8362 15.0641 25.4147 15.0641 25.9941C15.0641 26.1443 15.0688 26.1482 15.2136 26.149C15.4916 26.1497 15.7703 26.1443 16.0483 26.1513C16.1621 26.1544 16.1954 26.1195 16.1946 26.0049C16.1892 25.407 16.1923 24.8091 16.1923 24.2111C16.1923 24.167 16.1923 24.1228 16.1923 24.0779C16.4153 24.0384 16.6244 24.0012 16.8335 23.9633C17.0386 23.9261 17.2462 23.9013 17.4475 23.8487C17.7162 23.7782 17.9825 23.6961 18.2427 23.6008C18.5098 23.5032 18.7731 23.3932 19.0294 23.2701C19.4313 23.0765 19.7983 22.8248 20.1413 22.5382C20.5401 22.2051 20.8909 21.8287 21.1758 21.3942C21.3872 21.0728 21.5753 20.7367 21.6837 20.3634C21.7666 20.0752 21.8572 19.7887 21.9215 19.4959C22.0082 19.104 22.002 18.7028 21.9795 18.3055C21.9648 18.0452 21.9253 17.7834 21.8657 17.5302C21.8061 17.2792 21.7209 17.0322 21.6218 16.7928C21.4576 16.394 21.2362 16.0245 20.9543 15.6969C20.6911 15.391 20.3906 15.123 20.0623 14.8837C19.5149 14.484 18.9318 14.1549 18.283 13.9512C18.1026 13.8946 17.9206 13.8412 17.7402 13.787C17.4072 13.6863 17.0743 13.584 16.7405 13.4849C16.5601 13.4307 16.3782 13.3811 16.1977 13.3292C16.197 11.4108 16.197 9.4977 16.197 7.55212Z" fill="#40A92E"/>
<path d="M16.1979 7.55336C16.1979 9.49894 16.1979 11.412 16.1979 13.3351C16.3783 13.387 16.5603 13.4373 16.7407 13.4908C17.0745 13.5907 17.4074 13.6922 17.7404 13.7928C17.9216 13.8478 18.1027 13.9005 18.2832 13.957C18.9328 14.1607 19.5151 14.4899 20.0625 14.8896C20.3901 15.1289 20.6905 15.3969 20.9545 15.7028C21.2364 16.0296 21.4578 16.3999 21.622 16.7987C21.7203 17.0373 21.8063 17.2851 21.8659 17.5361C21.9263 17.7893 21.9658 18.0511 21.9797 18.3114C22.0022 18.7087 22.0076 19.1099 21.9217 19.5018C21.8574 19.7938 21.7676 20.0811 21.6839 20.3692C21.5763 20.7425 21.3874 21.0787 21.176 21.4001C20.891 21.8338 20.5403 22.211 20.1415 22.5441C19.7985 22.8306 19.4315 23.0816 19.0296 23.276C18.7733 23.3991 18.51 23.5091 18.2429 23.6067C17.9827 23.702 17.7164 23.7841 17.4477 23.8545C17.2471 23.9072 17.0388 23.932 16.8336 23.9692C16.6246 24.0071 16.4155 24.0435 16.1925 24.0838C16.1925 24.1287 16.1925 24.1729 16.1925 24.217C16.1925 24.8149 16.1894 25.4129 16.1948 26.0108C16.1956 26.1254 16.1623 26.1603 16.0485 26.1572C15.7705 26.1494 15.4918 26.1548 15.2138 26.1548C15.069 26.1548 15.0643 26.1502 15.0643 25.9999C15.0636 25.4206 15.0612 24.8413 15.0667 24.2627C15.0674 24.1496 15.0365 24.1156 14.9219 24.1148C14.7051 24.1125 14.4875 24.0923 14.2707 24.0753C14.1754 24.0675 14.1483 24.1047 14.1483 24.1969C14.1514 24.7762 14.1499 25.3548 14.1499 25.9341C14.1499 25.9752 14.1514 26.0178 14.1437 26.058C14.1313 26.1231 14.098 26.1587 14.0206 26.1579C13.731 26.1533 13.4414 26.1525 13.1518 26.1587C13.0511 26.161 13.0225 26.1262 13.0232 26.0294C13.0263 25.4802 13.0248 24.9311 13.0248 24.382C13.0248 24.2356 13.0248 24.09 13.0248 23.939C12.8467 23.8979 12.6756 23.8631 12.5076 23.8174C12.2218 23.7399 11.9361 23.6625 11.655 23.5711C11.4313 23.4983 11.2098 23.4123 10.9945 23.317C10.5346 23.1133 10.118 22.8384 9.72622 22.5239C9.34681 22.2195 9.01617 21.8702 8.73665 21.4752C8.49351 21.1314 8.26819 20.7751 8.09397 20.3878C7.94762 20.0625 7.82915 19.7295 7.7432 19.3841C7.63635 18.9519 7.56124 18.5158 7.5473 18.0705C7.54266 17.9256 7.5504 17.9233 7.69907 17.9156C7.97163 17.9001 8.24496 17.8861 8.51674 17.8629C8.89693 17.8312 9.27712 17.7917 9.65731 17.7553C9.66118 17.7553 9.66505 17.7545 9.66892 17.7545C9.84701 17.7351 9.87799 17.7514 9.89115 17.9318C9.91515 18.2571 10.0065 18.5662 10.0932 18.8783C10.2481 19.4352 10.5377 19.9169 10.9001 20.3576C11.2059 20.7302 11.5939 21.0036 12.0244 21.2111C12.3395 21.3629 12.6663 21.4915 13.0132 21.6418C13.0194 21.5713 13.0256 21.5326 13.0256 21.4946C13.0263 19.4003 13.0248 17.3053 13.0294 15.211C13.0294 15.1049 12.9737 15.0677 12.9017 15.0452C12.6578 14.9686 12.41 14.9058 12.1669 14.8284C11.9663 14.7641 11.7642 14.699 11.5722 14.6131C11.2276 14.4597 10.8799 14.3087 10.5524 14.1236C9.90121 13.7549 9.32745 13.2917 8.91164 12.6535C8.66851 12.2802 8.47725 11.8852 8.35181 11.4546C8.18689 10.8907 8.18224 10.3153 8.23257 9.74136C8.26199 9.40755 8.35104 9.0807 8.45867 8.75696C8.72968 7.93675 9.20356 7.26369 9.85398 6.70759C10.2458 6.373 10.6802 6.10192 11.1525 5.9021C11.4963 5.75727 11.8556 5.64574 12.2133 5.53808C12.4472 5.4676 12.6903 5.42578 12.9311 5.38163C13.0078 5.36769 13.0287 5.3398 13.0279 5.26623C13.0248 4.92389 13.0294 4.58156 13.0248 4.24C13.0232 4.14086 13.0472 4.10058 13.1564 4.10368C13.4421 4.11143 13.7279 4.10988 14.0136 4.10446C14.1181 4.10291 14.153 4.14473 14.1522 4.24464C14.1491 4.53818 14.1537 4.83095 14.1499 5.12449C14.1483 5.22518 14.1599 5.26545 14.2854 5.25074C14.4821 5.2275 14.6834 5.24067 14.8824 5.24222C15.0651 5.24376 15.0651 5.24531 15.0651 5.05788C15.0651 4.7837 15.0682 4.50875 15.0636 4.23457C15.062 4.13621 15.0961 4.10291 15.1944 4.10446C15.4879 4.1091 15.7806 4.1091 16.074 4.10446C16.1685 4.10291 16.1964 4.13544 16.1948 4.2276C16.1902 4.56994 16.1956 4.91227 16.1917 5.25383C16.191 5.34135 16.2212 5.36536 16.3063 5.37698C16.4643 5.39789 16.6199 5.43817 16.7763 5.47225C16.9242 5.50478 17.0752 5.52956 17.2192 5.57448C17.4879 5.65735 17.7589 5.73713 18.0176 5.84634C18.3335 5.97955 18.6455 6.12594 18.9429 6.29633C19.44 6.58057 19.8713 6.94847 20.2158 7.41008C20.5488 7.8562 20.8461 8.32633 21.0467 8.8468C21.145 9.10084 21.2132 9.36882 21.2705 9.63603C21.3363 9.94506 21.3742 10.2603 21.4238 10.5732C21.4408 10.6808 21.4044 10.7234 21.2852 10.7265C20.9298 10.7343 20.5736 10.7529 20.2189 10.7761C19.8937 10.7978 19.5693 10.8311 19.2449 10.8621C19.0799 10.8776 19.0358 10.8528 19.0327 10.6886C19.0273 10.3509 18.9181 10.0349 18.8112 9.7251C18.6881 9.36805 18.4914 9.04198 18.2553 8.74301C17.9696 8.38054 17.6196 8.10094 17.2045 7.90267C16.9544 7.78339 16.6981 7.67729 16.424 7.62152C16.3536 7.60293 16.2847 7.57815 16.1979 7.55336ZM16.201 15.8933C16.201 17.9024 16.201 19.8813 16.201 21.8656C16.2297 21.8671 16.2521 21.8733 16.273 21.8687C16.5479 21.8075 16.8228 21.7455 17.0977 21.682C17.4949 21.5891 17.8581 21.4164 18.2049 21.2073C18.6277 20.9524 19.0025 20.6434 19.2572 20.2081C19.5058 19.7837 19.6281 19.3229 19.6281 18.8357C19.6281 18.6227 19.5716 18.4082 19.5306 18.1959C19.4795 17.9303 19.3548 17.6933 19.2061 17.4718C19.0257 17.203 18.7764 17.0009 18.5124 16.822C18.1477 16.5741 17.7582 16.3727 17.3338 16.2434C16.9622 16.1288 16.5913 16.0134 16.201 15.8933ZM13.0279 10.0504C13.0279 9.26116 13.0279 8.47116 13.0279 7.68193C13.0279 7.5704 13.0039 7.55026 12.9056 7.58125C12.7042 7.64398 12.4998 7.70052 12.3024 7.7741C11.8354 7.94914 11.4444 8.23803 11.1177 8.61135C10.7684 9.00945 10.5989 9.48655 10.578 10.007C10.5687 10.2417 10.619 10.4818 10.6624 10.7157C10.7282 11.0782 10.938 11.3678 11.1765 11.635C11.4351 11.9255 11.782 12.0804 12.1312 12.2252C12.3736 12.3251 12.6252 12.4026 12.8715 12.4932C13.0294 12.5513 13.0287 12.5536 13.0287 12.3856C13.0279 11.6064 13.0279 10.828 13.0279 10.0504ZM14.1522 15.3922C14.1522 15.458 14.1522 15.5138 14.1522 15.5688C14.1522 17.6104 14.1522 19.6528 14.1522 21.6944C14.1522 21.7246 14.1537 21.7548 14.1522 21.785C14.1491 21.8439 14.17 21.8741 14.2343 21.8788C14.4542 21.8935 14.6733 21.9159 14.8932 21.9276C15.0651 21.9361 15.0659 21.9307 15.0659 21.7618C15.0659 19.7729 15.0659 17.7831 15.0659 15.7942C15.0659 15.7562 15.0744 15.7152 15.0612 15.6827C15.0481 15.6494 15.0179 15.6075 14.9869 15.5998C14.719 15.5285 14.4488 15.4642 14.1522 15.3922ZM15.0581 13.0431C15.0612 12.9742 15.0659 12.9231 15.0659 12.8712C15.0667 11.7427 15.0659 10.615 15.0659 9.48655C15.0659 8.83983 15.0643 8.19311 15.0674 7.54639C15.0682 7.44725 15.038 7.41472 14.9389 7.41782C14.7174 7.42402 14.4952 7.42402 14.2738 7.41937C14.1816 7.41705 14.1499 7.44648 14.1499 7.54097C14.1522 9.27123 14.1522 11.0007 14.1499 12.731C14.1499 12.8324 14.1963 12.8673 14.2877 12.8843C14.4224 12.9091 14.5548 12.9486 14.6896 12.9773C14.8088 13.0013 14.9281 13.0199 15.0581 13.0431Z" fill="white"/>
<path d="M16.2007 15.8936C16.5909 16.0136 16.9618 16.129 17.3335 16.2421C17.7578 16.3714 18.1473 16.5728 18.512 16.8206C18.776 17.0003 19.0254 17.2025 19.2058 17.4705C19.3545 17.692 19.4791 17.929 19.5302 18.1946C19.5713 18.4069 19.6278 18.6214 19.6278 18.8344C19.627 19.3216 19.5047 19.7824 19.2569 20.2068C19.0021 20.6421 18.6282 20.9511 18.2046 21.2059C17.8585 21.4143 17.4946 21.5878 17.0973 21.6807C16.8232 21.745 16.5476 21.8062 16.2727 21.8674C16.2518 21.872 16.2293 21.8658 16.2007 21.8643C16.2007 19.8815 16.2007 17.9026 16.2007 15.8936Z" fill="#40A92E"/>
<path d="M13.0275 10.0504C13.0275 10.8288 13.0275 11.6072 13.0275 12.3848C13.0275 12.5521 13.0283 12.5498 12.8703 12.4925C12.6241 12.4019 12.3716 12.3252 12.1301 12.2245C11.7808 12.0804 11.434 11.9248 11.1753 11.6343C10.9368 11.3663 10.727 11.0774 10.6612 10.715C10.6186 10.4811 10.5675 10.241 10.5768 10.0063C10.5985 9.48581 10.768 9.00871 11.1165 8.61061C11.444 8.23729 11.8343 7.9484 12.3012 7.77336C12.4986 7.69978 12.7023 7.64324 12.9044 7.58051C13.0027 7.54953 13.0267 7.56966 13.0267 7.68119C13.0275 8.4712 13.0275 9.26043 13.0275 10.0504Z" fill="#40A92E"/>
<path d="M14.1523 15.3916C14.4489 15.4636 14.7191 15.5279 14.9878 15.5984C15.0188 15.6061 15.049 15.648 15.0622 15.6813C15.0753 15.7138 15.0668 15.7556 15.0668 15.7928C15.0668 17.7818 15.0668 19.7715 15.0668 21.7604C15.0668 21.9293 15.066 21.9347 14.8941 21.9262C14.6742 21.9153 14.4551 21.8921 14.2352 21.8774C14.1709 21.8735 14.15 21.8425 14.1531 21.7837C14.1547 21.7535 14.1531 21.7233 14.1531 21.693C14.1531 19.6514 14.1531 17.609 14.1531 15.5674C14.1523 15.5132 14.1523 15.4574 14.1523 15.3916Z" fill="#40A92E"/>
<path d="M15.0581 13.0423C14.928 13.019 14.8088 13.0005 14.6911 12.9757C14.5563 12.947 14.4239 12.9075 14.2892 12.8827C14.1978 12.8657 14.1514 12.8316 14.1514 12.7294C14.1537 10.9991 14.1537 9.26962 14.1514 7.53936C14.1514 7.44487 14.1831 7.41621 14.2753 7.41776C14.4967 7.42241 14.7189 7.42241 14.9404 7.41622C15.0395 7.41312 15.0697 7.44565 15.0689 7.54478C15.0651 8.1915 15.0674 8.83822 15.0674 9.48494C15.0674 10.6134 15.0674 11.7411 15.0674 12.8696C15.0658 12.9222 15.0612 12.9733 15.0581 13.0423Z" fill="#40A92E"/>
</g>
<defs>
<clipPath id="clip0">
<rect width="30" height="30" fill="white"/>
</clipPath>
</defs>
</svg>
