<svg width="5" height="5" viewBox="0 0 5 5" fill="none" xmlns="http://www.w3.org/2000/svg">
<path d="M2.02875 4.35231C2.00458 4.32971 1.90125 4.24437 1.81625 4.16488C1.28167 3.69883 0.406667 2.48305 0.139583 1.84671C0.0966667 1.75007 0.00583333 1.50575 0 1.37521C0 1.25012 0.03 1.13088 0.0908333 1.0171C0.175833 0.875256 0.309583 0.761471 0.4675 0.699123C0.577083 0.658987 0.905 0.596639 0.910833 0.596639C1.26958 0.534291 1.8525 0.5 2.49667 0.5C3.11042 0.5 3.66958 0.534291 4.03375 0.585339C4.03958 0.591184 4.44708 0.653531 4.58667 0.721724C4.84167 0.84681 5 1.09113 5 1.35261V1.37521C4.99375 1.54549 4.83542 1.9036 4.82958 1.9036C4.56208 2.50565 3.73 3.69338 3.17708 4.17073C3.17708 4.17073 3.035 4.30516 2.94625 4.36361C2.81875 4.4548 2.66083 4.5 2.50292 4.5C2.32667 4.5 2.1625 4.44895 2.02875 4.35231" fill="#1A88C9"/>
</svg>
