<svg width="5" height="5" viewBox="0 0 5 5" fill="none" xmlns="http://www.w3.org/2000/svg">
<path d="M2.97125 0.647687C2.99542 0.670288 3.09875 0.755626 3.18375 0.83512C3.71833 1.30117 4.59333 2.51695 4.86042 3.15329C4.90333 3.24993 4.99417 3.49425 5 3.62479C5 3.74988 4.97 3.86912 4.90917 3.9829C4.82417 4.12474 4.69042 4.23853 4.5325 4.30088C4.42292 4.34101 4.095 4.40336 4.08917 4.40336C3.73042 4.46571 3.1475 4.5 2.50333 4.5C1.88958 4.5 1.33042 4.46571 0.96625 4.41466C0.960416 4.40882 0.552916 4.34647 0.413333 4.27828C0.158333 4.15319 -5.44368e-07 3.90886 -5.21509e-07 3.64739L-5.19533e-07 3.62479C0.0062495 3.45451 0.164583 3.0964 0.170416 3.0964C0.437916 2.49435 1.27 1.30662 1.82292 0.829275C1.82292 0.829275 1.965 0.694837 2.05375 0.636386C2.18125 0.545202 2.33917 0.5 2.49708 0.5C2.67333 0.5 2.8375 0.551048 2.97125 0.647687Z" fill="#1A88C9"/>
</svg>
