<svg width="7" height="5" viewBox="0 0 7 5" fill="none" xmlns="http://www.w3.org/2000/svg">
<path d="M4.0655 0.647687C4.0945 0.670288 4.2185 0.755626 4.3205 0.83512C4.962 1.30117 6.012 2.51695 6.3325 3.15329C6.384 3.24993 6.493 3.49425 6.5 3.62479C6.5 3.74988 6.464 3.86912 6.391 3.9829C6.289 4.12474 6.1285 4.23853 5.939 4.30088C5.8075 4.34101 5.414 4.40336 5.407 4.40336C4.9765 4.46571 4.277 4.5 3.504 4.5C2.7675 4.5 2.0965 4.46571 1.6595 4.41466C1.6525 4.40882 1.1635 4.34647 0.995999 4.27828C0.689999 4.15319 0.499999 3.90886 0.499999 3.64739L0.499999 3.62479C0.507499 3.45451 0.697499 3.0964 0.7045 3.0964C1.0255 2.49435 2.024 1.30662 2.6875 0.829275C2.6875 0.829275 2.858 0.694837 2.9645 0.636386C3.1175 0.545202 3.307 0.5 3.4965 0.5C3.708 0.5 3.905 0.551048 4.0655 0.647687Z" fill="#848E9C"/>
</svg>
