<svg width="7" height="5" viewBox="0 0 7 5" fill="none" xmlns="http://www.w3.org/2000/svg">
<path d="M2.9345 4.35231C2.9055 4.32971 2.7815 4.24437 2.6795 4.16488C2.038 3.69883 0.988 2.48305 0.6675 1.84671C0.616 1.75007 0.507 1.50575 0.5 1.37521C0.5 1.25012 0.536 1.13088 0.609 1.0171C0.711 0.875256 0.8715 0.761471 1.061 0.699123C1.1925 0.658987 1.586 0.596639 1.593 0.596639C2.0235 0.534291 2.723 0.5 3.496 0.5C4.2325 0.5 4.9035 0.534291 5.3405 0.585339C5.3475 0.591184 5.8365 0.653531 6.004 0.721724C6.31 0.84681 6.5 1.09113 6.5 1.35261V1.37521C6.4925 1.54549 6.3025 1.9036 6.2955 1.9036C5.9745 2.50565 4.976 3.69338 4.3125 4.17073C4.3125 4.17073 4.142 4.30516 4.0355 4.36361C3.8825 4.4548 3.693 4.5 3.5035 4.5C3.292 4.5 3.095 4.44895 2.9345 4.35231Z" fill="#848E9C"/>
</svg>
