<svg width="5" height="10" viewBox="0 0 5 10" fill="none" xmlns="http://www.w3.org/2000/svg">
<path d="M2.97125 0.647687C2.99542 0.670288 3.09875 0.755626 3.18375 0.83512C3.71833 1.30117 4.59333 2.51695 4.86042 3.15329C4.90333 3.24993 4.99417 3.49425 5 3.62479C5 3.74988 4.97 3.86912 4.90917 3.9829C4.82417 4.12474 4.69042 4.23853 4.5325 4.30088C4.42292 4.34101 4.095 4.40336 4.08917 4.40336C3.73042 4.46571 3.1475 4.5 2.50333 4.5C1.88958 4.5 1.33042 4.46571 0.966249 4.41466C0.960416 4.40882 0.552916 4.34647 0.413332 4.27828C0.158333 4.15319 -4.25159e-07 3.90886 -4.023e-07 3.64739L-4.00324e-07 3.62479C0.00624952 3.45451 0.164583 3.0964 0.170416 3.0964C0.437916 2.49435 1.27 1.30662 1.82292 0.829275C1.82292 0.829275 1.965 0.694837 2.05375 0.636386C2.18125 0.545202 2.33917 0.5 2.49708 0.5C2.67333 0.5 2.8375 0.551048 2.97125 0.647687Z" fill="#848E9C"/>
<path d="M2.02875 9.35231C2.00458 9.32971 1.90125 9.24437 1.81625 9.16488C1.28167 8.69883 0.406667 7.48305 0.139583 6.84671C0.0966667 6.75007 0.00583333 6.50575 0 6.37521C0 6.25012 0.03 6.13088 0.0908333 6.0171C0.175833 5.87526 0.309583 5.76147 0.4675 5.69912C0.577083 5.65899 0.905 5.59664 0.910833 5.59664C1.26958 5.53429 1.8525 5.5 2.49667 5.5C3.11042 5.5 3.66958 5.53429 4.03375 5.58534C4.03958 5.59118 4.44708 5.65353 4.58667 5.72172C4.84167 5.84681 5 6.09113 5 6.35261V6.37521C4.99375 6.54549 4.83542 6.9036 4.82958 6.9036C4.56208 7.50565 3.73 8.69338 3.17708 9.17073C3.17708 9.17073 3.035 9.30516 2.94625 9.36361C2.81875 9.4548 2.66083 9.5 2.50292 9.5C2.32667 9.5 2.1625 9.44895 2.02875 9.35231" fill="#848E9C"/>
</svg>
