<svg width="98" height="88" viewBox="0 0 98 88" fill="none" xmlns="http://www.w3.org/2000/svg">
<rect width="98" height="88" rx="12" fill="#3A449C"/>
<path d="M47.2432 57.3504C47.4739 57.5811 47.7478 57.7641 48.0492 57.889C48.3507 58.0138 48.6737 58.0781 49 58.0781C49.3263 58.0781 49.6493 58.0138 49.9508 57.889C50.2522 57.7641 50.5261 57.5811 50.7568 57.3504L60.1259 47.9813C60.5918 47.5154 60.8535 46.8835 60.8535 46.2246C60.8535 45.5657 60.5918 44.9338 60.1259 44.4679C59.6599 44.002 59.028 43.7402 58.3691 43.7402C57.7102 43.7402 57.0783 44.002 56.6124 44.4679L51.4844 49.596V22.4688C51.4844 21.8099 51.2226 21.1779 50.7567 20.712C50.2908 20.2461 49.6589 19.9844 49 19.9844C48.3411 19.9844 47.7092 20.2461 47.2433 20.712C46.7774 21.1779 46.5156 21.8099 46.5156 22.4688V49.596L41.3876 44.4679C40.9216 44.002 40.2897 43.7402 39.6308 43.7402C38.972 43.7402 38.34 44.002 37.8741 44.4679C37.4082 44.9338 37.1465 45.5657 37.1465 46.2246C37.1465 46.8835 37.4082 47.5154 37.8741 47.9813L47.2432 57.3504Z" fill="white"/>
<path d="M70.5312 41.5156C69.8724 41.5156 69.2404 41.7774 68.7745 42.2433C68.3086 42.7092 68.0469 43.3411 68.0469 44V63.0469H29.9531V44C29.9531 43.3411 29.6914 42.7092 29.2255 42.2433C28.7596 41.7774 28.1276 41.5156 27.4688 41.5156C26.8099 41.5156 26.1779 41.7774 25.712 42.2433C25.2461 42.7092 24.9844 43.3411 24.9844 44V63.875C24.9844 64.9732 25.4206 66.0263 26.1971 66.8029C26.9737 67.5794 28.0268 68.0156 29.125 68.0156H68.875C69.9732 68.0156 71.0263 67.5794 71.8029 66.8029C72.5794 66.0263 73.0156 64.9732 73.0156 63.875V44C73.0156 43.3411 72.7539 42.7092 72.288 42.2433C71.8221 41.7774 71.1901 41.5156 70.5312 41.5156Z" fill="white"/>
</svg>
