<svg width="215" height="215" viewBox="0 0 215 215" fill="none" xmlns="http://www.w3.org/2000/svg">
<circle opacity="0.1" cx="107.5" cy="107.5" r="107.5" fill="#FFCC00"/>
<circle cx="107.994" cy="107.994" r="86.4943" fill="#FFCC00"/>
<g clip-path="url(#clip0)">
<path d="M107.499 123.438C105.094 123.438 103.079 125.453 103.079 127.857C103.079 130.261 105.094 132.277 107.499 132.277C109.815 132.277 111.918 130.261 111.812 127.963C111.918 125.435 109.921 123.438 107.499 123.438Z" fill="white"/>
<path d="M148.407 139.101C151.183 134.31 151.201 128.6 148.443 123.826L120.758 75.8819C118.018 71.0556 113.068 68.1917 107.517 68.1917C101.966 68.1917 97.0155 71.0733 94.2753 75.8642L66.5552 123.862C63.7974 128.688 63.815 134.433 66.6083 139.224C69.3661 143.962 74.2985 146.809 79.8142 146.809H135.113C140.646 146.809 145.614 143.927 148.407 139.101ZM142.397 135.636C140.859 138.287 138.136 139.861 135.095 139.861H79.7965C76.7912 139.861 74.0863 138.323 72.5836 135.724C71.0633 133.09 71.0456 129.943 72.566 127.291L100.286 79.3115C101.789 76.6774 104.476 75.1217 107.517 75.1217C110.54 75.1217 113.245 76.6951 114.747 79.3292L142.45 127.309C143.935 129.89 143.917 133.002 142.397 135.636Z" fill="white"/>
<path d="M106.402 92.4114C104.298 93.0125 102.99 94.9218 102.99 97.2377C103.096 98.6343 103.185 100.049 103.291 101.445C103.591 106.766 103.892 111.982 104.192 117.303C104.298 119.106 105.695 120.414 107.498 120.414C109.301 120.414 110.716 119.018 110.804 117.197C110.804 116.101 110.804 115.093 110.91 113.979C111.105 110.567 111.317 107.155 111.511 103.743C111.617 101.534 111.812 99.3237 111.918 97.1139C111.918 96.3184 111.812 95.6112 111.511 94.9041C110.61 92.9241 108.506 91.9164 106.402 92.4114Z" fill="white"/>
</g>
<defs>
<clipPath id="clip0">
<rect width="86" height="86" fill="white" transform="translate(64.5 64.5)"/>
</clipPath>
</defs>
</svg>
