<svg width="22" height="16" viewBox="0 0 22 16" fill="none" xmlns="http://www.w3.org/2000/svg">
<g clip-path="url(#clip0)">
<path d="M7.90012 2.70998C8.50012 2.60998 9.00012 2.30998 9.40012 1.90998C8.50012 0.309977 6.20012 -0.290023 4.00012 0.209977C1.40012 1.00998 0.700116 3.80998 1.70012 5.30998C1.90012 5.60998 2.60012 6.30998 2.60012 6.30998C0.300116 7.50998 -0.499884 9.40998 0.300116 12.01C1.70012 14.91 5.40012 15.91 8.40012 14.21C10.0001 13.21 10.9001 11.91 10.8001 10.11C10.4001 10.01 9.20012 9.90998 9.00012 10.11C8.90012 11.51 8.30012 12.61 6.50012 13.21C4.00012 13.51 2.40012 12.71 1.80012 10.51C1.60012 8.40998 3.40012 7.20998 5.70012 7.10998C6.10012 7.10998 6.00012 5.60998 5.70012 5.60998C4.50012 5.60998 3.70012 5.20998 3.20012 4.30998C2.50012 1.30998 6.30012 0.809977 7.90012 2.70998Z" fill="url(#paint0_linear)"/>
<path d="M8.90019 5.51001H7.0002C6.6002 5.51001 6.6002 7.11001 7.0002 7.11001H8.90019C8.90019 7.11001 8.90019 8.81001 8.90019 8.91001C8.90019 9.21001 10.7002 9.21001 10.7002 8.91001V7.11001H12.7002C13.0002 7.11001 13.0002 5.51001 12.7002 5.51001H10.7002V3.81001C10.6002 3.61001 9.00019 3.51001 8.90019 3.81001V5.51001Z" fill="#E53493"/>
<path d="M13.4102 4.72002C13.5502 5.15002 13.6402 5.60002 13.7202 6.05002L17.6102 4.11002L18.8102 3.51002L21.4102 2.21002V0.710022L19.0002 1.91002L16.8002 3.01002L13.4102 4.72002Z" fill="#848E9C"/>
<path d="M11.5601 1.44002C11.6101 1.43002 11.6501 1.42002 11.7001 1.41002C13.0001 1.21002 14.4001 1.51002 15.6001 2.11002L16.8001 1.51002L17.0001 1.41002C15.0201 0.0100217 12.5701 -0.329978 10.3901 0.300022C10.8101 0.650022 11.2001 1.03002 11.5601 1.44002Z" fill="#848E9C"/>
<path d="M21.4999 3.71002L13.8399 7.54002C13.8399 8.07002 13.7799 8.58002 13.6999 9.08002L18.7999 6.51002C19.2999 9.91002 16.8999 12.91 13.3999 13.41C13.0999 13.41 12.8999 13.51 12.5999 13.51C12.2999 13.51 12.0099 13.48 11.7199 13.44C11.3899 13.84 11.0299 14.21 10.6499 14.55C13.6299 15.35 16.9399 14.35 18.7999 11.71C19.6999 10.41 20.2999 8.91002 20.2999 7.31002C20.2999 7.11002 20.2999 6.91002 20.2999 6.71002C20.2999 6.11002 20.5999 5.61002 21.0999 5.41002L21.6999 5.11002V3.71002H21.4999Z" fill="#848E9C"/>
</g>
<defs>
<linearGradient id="paint0_linear" x1="1.71242" y1="13.7581" x2="9.82292" y2="1.36308" gradientUnits="userSpaceOnUse">
<stop stop-color="#56CAF6"/>
<stop offset="1" stop-color="#E53493"/>
</linearGradient>
<clipPath id="clip0">
<rect width="21.7" height="15.04" fill="white"/>
</clipPath>
</defs>
</svg>
