<svg width="14" height="14" viewBox="0 0 14 14" fill="none" xmlns="http://www.w3.org/2000/svg">
<g clip-path="url(#clip0)">
<path d="M2.80325 8.41899C2.80325 7.06287 2.80325 5.70676 2.80325 4.35065C2.80325 3.40877 3.39527 2.80592 4.32153 2.80469C7.05468 2.80469 9.78783 2.80469 12.521 2.80469C13.4004 2.80469 13.9912 3.39275 13.9936 4.28408C14.001 7.01767 14.001 9.75085 13.9936 12.4836C13.9936 13.4329 13.4201 13.9889 12.4531 13.9914C9.73973 13.9971 7.02631 13.9971 4.3129 13.9914C3.37183 13.9914 2.80448 13.4156 2.80078 12.4861C2.80078 11.1312 2.80325 9.7751 2.80325 8.41899ZM12.5469 4.20025H12.2139C9.7052 4.20025 7.19652 4.20641 4.69031 4.18915C4.24999 4.18915 4.18956 4.37778 4.19696 4.74639C4.20683 7.19356 4.19696 9.64072 4.20436 12.0879C4.20436 12.242 4.19696 12.4047 4.19696 12.5453H12.5568L12.5469 4.20025Z" fill="#848E9C"/>
<path d="M1.42079 11.1761H0.00488281C0.00488281 10.9887 0.00488281 10.8063 0.00488281 10.6275C0.00488281 7.62761 0.00488281 4.62773 0.00488281 1.62785C0.00488281 0.538026 0.535233 0.00297819 1.60827 0.00174536C4.60783 -0.00318595 7.60903 -0.00318595 10.6119 0.00174536H11.1694V1.40717H1.42573L1.42079 11.1761Z" fill="#848E9C"/>
</g>
<defs>
<clipPath id="clip0">
<rect width="14" height="14" fill="white"/>
</clipPath>
</defs>
</svg>
