<svg width="102" height="115" viewBox="0 0 102 115" fill="none" xmlns="http://www.w3.org/2000/svg">
<path d="M95.4769 41.1349H92.7159V27.8098C92.7159 27.7261 92.7024 27.643 92.6915 27.5581C92.6871 27.0295 92.5187 26.5094 92.1565 26.0983L69.9839 0.771224C69.9774 0.764092 69.9705 0.761995 69.9661 0.755493C69.8341 0.607205 69.68 0.484505 69.517 0.378795C69.4686 0.345866 69.4201 0.318809 69.3694 0.290913C69.2284 0.214357 69.0787 0.149966 68.9245 0.103613C68.8828 0.0927062 68.8454 0.0755074 68.8037 0.0641812C68.6359 0.0247496 68.462 0 68.2862 0H13.794C11.3056 0 9.28427 2.02381 9.28427 4.50989V41.1337H6.52342C2.96367 41.1337 0.0773926 44.0189 0.0773926 47.5791V81.098C0.0773926 84.6565 2.96367 87.5447 6.52342 87.5447H9.28427V110.49C9.28427 112.977 11.3056 115 13.794 115H88.206C90.692 115 92.7159 112.977 92.7159 110.49V87.5449H95.4769C99.0354 87.5449 101.922 84.658 101.922 81.0993V47.5803C101.922 44.0191 99.0354 41.1349 95.4769 41.1349ZM13.794 4.50989H66.0311V27.5828C66.0311 28.8287 67.0416 29.8378 68.286 29.8378H88.206V41.1347H13.794V4.50989ZM47.7432 65.6872C42.1472 63.7385 38.5013 60.6423 38.5013 55.7477C38.5013 49.9999 43.2962 45.6029 51.2396 45.6029C55.0374 45.6029 57.8354 46.4022 59.8323 47.3033L58.1355 53.4487C56.7869 52.797 54.3891 51.848 51.0902 51.848C47.7937 51.848 46.1951 53.3474 46.1951 55.0958C46.1951 57.2451 48.0926 58.1935 52.4412 59.8427C58.3855 62.0406 61.1835 65.1364 61.1835 69.8839C61.1835 75.5279 56.8374 80.3262 47.5938 80.3262C43.7476 80.3262 39.9489 79.3245 38.0512 78.277L39.5991 71.9814C41.6487 73.033 44.7954 74.0801 48.0442 74.0801C51.5408 74.0801 53.3901 72.6311 53.3901 70.4314C53.389 68.3318 51.7893 67.134 47.7432 65.6872ZM8.07154 63.4874C8.07154 51.9975 16.267 45.6029 26.4564 45.6029C30.4041 45.6029 33.4016 46.4022 34.7515 47.1023L33.2011 53.1463C31.6532 52.4994 29.5029 51.9006 26.8058 51.9006C20.7606 51.9006 16.0657 55.5449 16.0657 63.0377C16.0657 69.7826 20.0615 74.0282 26.8582 74.0282C29.1543 74.0282 31.7027 73.5295 33.2011 72.9296L34.3511 78.875C32.9517 79.5755 29.8051 80.3262 25.708 80.3262C14.0673 80.3264 8.07154 73.0794 8.07154 63.4874ZM88.206 109.268H13.794V87.5449H88.206V109.268ZM83.1688 79.8245H74.2759L63.4846 46.1532H71.8296L75.9251 60.3935C77.0743 64.3883 78.123 68.2349 78.9242 72.4321H79.0729C79.922 68.3845 80.97 64.3881 82.1196 60.5412L86.4166 46.1532H94.5125L83.1688 79.8245Z" fill="white"/>
</svg>
