<svg width="16" height="16" viewBox="0 0 16 16" fill="none" xmlns="http://www.w3.org/2000/svg">
<path d="M6.79929 3.81107C6.83239 3.87845 6.85426 3.95061 6.86405 4.0248L7.04503 6.71574L7.13487 8.06828C7.1358 8.20737 7.15762 8.34556 7.19963 8.4784C7.30814 8.73614 7.56916 8.89995 7.85313 8.88853L12.1804 8.60548C12.3677 8.60239 12.5487 8.67248 12.6834 8.80031C12.7957 8.90684 12.8681 9.0462 12.891 9.19608L12.8986 9.2871C12.7196 11.7667 10.8985 13.8348 8.42403 14.3687C5.94961 14.9025 3.41221 13.7748 2.18946 11.5977C1.83695 10.9652 1.61677 10.2699 1.54185 9.55281C1.51055 9.34052 1.49677 9.1261 1.50064 8.91163C1.49677 6.25325 3.38986 3.955 6.03982 3.40095C6.35876 3.35129 6.67142 3.52013 6.79929 3.81107Z" fill="white"/>
<path opacity="0.4" d="M8.56533 1.50053C11.5292 1.57594 14.0203 3.70726 14.4998 6.57799L14.4952 6.59917L14.4822 6.62998L14.484 6.71453C14.4772 6.82656 14.4339 6.93435 14.3594 7.02141C14.2818 7.11211 14.1757 7.17387 14.0589 7.19784L13.9876 7.20762L8.99511 7.5311C8.82904 7.54747 8.6637 7.49392 8.5402 7.38377C8.43728 7.29198 8.37149 7.16806 8.3529 7.03454L8.0178 2.04929C8.01197 2.03243 8.01197 2.01416 8.0178 1.9973C8.02238 1.85989 8.08287 1.73 8.18575 1.63665C8.28864 1.5433 8.42534 1.49428 8.56533 1.50053Z" fill="white"/>
</svg>
