<svg width="24" height="24" viewBox="0 0 24 24" fill="none" xmlns="http://www.w3.org/2000/svg">
<g id="Iconly/Light/Delete">
<g id="Delete">
<path id="Stroke 1" d="M19.3249 9.46875C19.3249 9.46875 18.7819 16.2037 18.4669 19.0407C18.3169 20.3957 17.4799 21.1898 16.1089 21.2148C13.4999 21.2618 10.8879 21.2648 8.27991 21.2098C6.96091 21.1828 6.13791 20.3788 5.99091 19.0478C5.67391 16.1858 5.13391 9.46875 5.13391 9.46875" stroke="#4E4B66" stroke-width="1.5" stroke-linecap="round" stroke-linejoin="round"/>
<path id="Stroke 3" d="M20.7082 6.24023H3.75024" stroke="#4E4B66" stroke-width="1.5" stroke-linecap="round" stroke-linejoin="round"/>
<path id="Stroke 5" d="M17.4407 6.23998C16.6557 6.23998 15.9797 5.68498 15.8257 4.91598L15.5827 3.69998C15.4327 3.13898 14.9247 2.75098 14.3457 2.75098H10.1127C9.5337 2.75098 9.0257 3.13898 8.8757 3.69998L8.6327 4.91598C8.4787 5.68498 7.8027 6.23998 7.0177 6.23998" stroke="#4E4B66" stroke-width="1.5" stroke-linecap="round" stroke-linejoin="round"/>
</g>
</g>
</svg>
