<svg width="34" height="30" viewBox="0 0 34 30" fill="none" xmlns="http://www.w3.org/2000/svg">
<rect width="34" height="30" rx="12" fill="#1A88C9"/>
<path d="M16.4695 19.0303C16.5391 19.1 16.6218 19.1552 16.7128 19.1929C16.8038 19.2306 16.9013 19.25 16.9998 19.25C17.0983 19.25 17.1958 19.2306 17.2868 19.1929C17.3778 19.1552 17.4605 19.1 17.5301 19.0303L20.3586 16.2019C20.4992 16.0613 20.5782 15.8705 20.5782 15.6716C20.5782 15.4727 20.4992 15.2819 20.3586 15.1412C20.2179 15.0006 20.0271 14.9216 19.8282 14.9216C19.6293 14.9216 19.4385 15.0006 19.2979 15.1412L17.7498 16.6893V8.5C17.7498 8.30109 17.6708 8.11032 17.5301 7.96967C17.3895 7.82902 17.1987 7.75 16.9998 7.75C16.8009 7.75 16.6101 7.82902 16.4695 7.96967C16.3288 8.11032 16.2498 8.30109 16.2498 8.5V16.6893L14.7017 15.1412C14.5611 15.0006 14.3703 14.9216 14.1714 14.9216C13.9725 14.9216 13.7817 15.0006 13.6411 15.1412C13.5004 15.2819 13.4214 15.4727 13.4214 15.6716C13.4214 15.8705 13.5004 16.0613 13.6411 16.2019L16.4695 19.0303Z" fill="white"/>
<path d="M23.5 14.25C23.3011 14.25 23.1103 14.329 22.9697 14.4697C22.829 14.6103 22.75 14.8011 22.75 15V20.75H11.25V15C11.25 14.8011 11.171 14.6103 11.0303 14.4697C10.8897 14.329 10.6989 14.25 10.5 14.25C10.3011 14.25 10.1103 14.329 9.96967 14.4697C9.82902 14.6103 9.75 14.8011 9.75 15V21C9.75 21.3315 9.8817 21.6495 10.1161 21.8839C10.3505 22.1183 10.6685 22.25 11 22.25H23C23.3315 22.25 23.6495 22.1183 23.8839 21.8839C24.1183 21.6495 24.25 21.3315 24.25 21V15C24.25 14.8011 24.171 14.6103 24.0303 14.4697C23.8897 14.329 23.6989 14.25 23.5 14.25Z" fill="white"/>
</svg>
