<svg width="16" height="16" viewBox="0 0 16 16" fill="none" xmlns="http://www.w3.org/2000/svg">
<g clip-path="url(#clip0)">
<path d="M8.97593 4.47173C9.3815 4.37436 9.71497 4.15505 9.99706 3.85192C9.34545 2.68257 7.81511 2.26598 6.25412 2.62161C4.47773 3.2338 3.97843 5.28206 4.66429 6.32525C4.79858 6.53016 5.29067 7.08816 5.29067 7.08816C3.69814 7.96623 3.17 9.36335 3.69994 11.2761C4.64717 13.3981 7.23469 14.1288 9.33373 12.9053C10.4216 12.161 11.0551 11.2101 10.9686 9.93151C10.6892 9.82398 9.87088 9.81805 9.7375 9.95522C9.70145 10.984 9.22648 11.7884 7.98004 12.1982C6.27575 12.4319 5.13565 11.8528 4.74 10.2033C4.62554 8.65632 5.84765 7.80366 7.4528 7.73168C7.73399 7.71559 7.67902 6.61145 7.451 6.6233C6.60832 6.65294 6.03511 6.34388 5.75122 5.66987C5.28346 3.50052 7.87189 3.07715 8.97593 4.47173Z" fill="url(#paint0_linear)"/>
<path d="M9.73035 6.58299H8.39198C8.14864 6.56944 8.14864 7.78875 8.39198 7.7752H9.73035C9.73035 7.7752 9.72675 9.02668 9.73035 9.06224C9.75108 9.28832 10.9588 9.27223 10.975 9.06224V7.76927L12.3269 7.76165C12.5594 7.74556 12.5549 6.58976 12.3269 6.58383H10.975V5.32643C10.9002 5.14438 9.80606 5.09103 9.72585 5.32643L9.73035 6.58299Z" fill="#E53493"/>
</g>
<defs>
<linearGradient id="paint0_linear" x1="4.15663" y1="12.2144" x2="10.2344" y2="3.44557" gradientUnits="userSpaceOnUse">
<stop stop-color="#56CAF6"/>
<stop offset="1" stop-color="#E53493"/>
</linearGradient>
<clipPath id="clip0">
<rect width="9" height="11" fill="white" transform="translate(3.5 2.5)"/>
</clipPath>
</defs>
</svg>
