<svg width="34" height="30" viewBox="0 0 34 30" fill="none" xmlns="http://www.w3.org/2000/svg">
<rect width="34" height="30" rx="12" fill="#1A88C9"/>
<path d="M16.4697 19.0303C16.5393 19.1 16.622 19.1552 16.713 19.1929C16.804 19.2306 16.9016 19.25 17 19.25C17.0985 19.25 17.1961 19.2306 17.2871 19.1929C17.3781 19.1552 17.4607 19.1 17.5304 19.0303L20.3588 16.2019C20.4994 16.0613 20.5785 15.8705 20.5785 15.6716C20.5785 15.4727 20.4994 15.2819 20.3588 15.1412C20.2181 15.0006 20.0274 14.9216 19.8285 14.9216C19.6296 14.9216 19.4388 15.0006 19.2981 15.1412L17.75 16.6893V8.5C17.75 8.30109 17.671 8.11032 17.5304 7.96967C17.3897 7.82902 17.199 7.75 17 7.75C16.8011 7.75 16.6104 7.82902 16.4697 7.96967C16.3291 8.11032 16.25 8.30109 16.25 8.5V16.6893L14.702 15.1412C14.5613 15.0006 14.3705 14.9216 14.1716 14.9216C13.9727 14.9216 13.782 15.0006 13.6413 15.1412C13.5006 15.2819 13.4216 15.4727 13.4216 15.6716C13.4216 15.8705 13.5006 16.0613 13.6413 16.2019L16.4697 19.0303Z" fill="white"/>
<path d="M23.5 14.25C23.3011 14.25 23.1103 14.329 22.9697 14.4697C22.829 14.6103 22.75 14.8011 22.75 15V20.75H11.25V15C11.25 14.8011 11.171 14.6103 11.0303 14.4697C10.8897 14.329 10.6989 14.25 10.5 14.25C10.3011 14.25 10.1103 14.329 9.96967 14.4697C9.82902 14.6103 9.75 14.8011 9.75 15V21C9.75 21.3315 9.8817 21.6495 10.1161 21.8839C10.3505 22.1183 10.6685 22.25 11 22.25H23C23.3315 22.25 23.6495 22.1183 23.8839 21.8839C24.1183 21.6495 24.25 21.3315 24.25 21V15C24.25 14.8011 24.171 14.6103 24.0303 14.4697C23.8897 14.329 23.6989 14.25 23.5 14.25Z" fill="white"/>
</svg>
