<svg width="16" height="16" viewBox="0 0 16 16" fill="none" xmlns="http://www.w3.org/2000/svg">
<path d="M13 6.00476L5.10562 9.80775L4.41503 10.1343L3 10.8193V11.6388L4.40826 10.9602L5.61341 10.3776L11.436 7.57333C11.6865 9.36599 10.3527 11.0114 8.45701 11.2483C8.30806 11.2675 8.15234 11.2803 7.99661 11.2803C7.40758 11.2803 6.82532 11.133 6.30399 10.8577L6.26337 10.8833L5.51862 11.2355C7.40758 12.5351 10.0548 12.1382 11.4292 10.3455C11.9506 9.6669 12.2349 8.8474 12.2349 8.00229C12.2349 7.89985 12.2349 7.79741 12.2214 7.69498C12.2011 7.40047 12.3636 7.12517 12.6412 6.99072L13 6.81146V6.00476ZM11.5917 5.05081L10.3866 5.62702L4.57075 8.43125C4.32024 6.63859 5.6608 4.99319 7.55653 4.75631C8.29452 4.66667 9.04604 4.80112 9.696 5.14685L10.3866 4.81393L10.4882 4.76271C8.59919 3.46304 5.95193 3.86638 4.57752 5.65263C4.04942 6.33768 3.77183 7.15718 3.77183 8.00229C3.77183 8.10473 3.77183 8.20716 3.77861 8.3096C3.80569 8.59771 3.6432 8.87941 3.36561 9.01386L3 9.18672V10.0062L4.06974 9.48763L4.41503 9.32117L4.76032 9.16111L10.8876 6.20323L11.5782 5.87031L13 5.18526V4.36576L11.5917 5.05081Z" fill="white"/>
</svg>
