<svg width="16" height="16" viewBox="0 0 16 16" fill="none" xmlns="http://www.w3.org/2000/svg">
<path d="M8 11.0254C8.28315 11.0254 8.5127 10.7958 8.5127 10.5127C8.5127 10.2295 8.28315 10 8 10C7.71685 10 7.4873 10.2295 7.4873 10.5127C7.4873 10.7958 7.71685 11.0254 8 11.0254Z" fill="#828282"/>
<path d="M8 2.75C5.09847 2.75 2.75 5.09808 2.75 8C2.75 10.9015 5.09808 13.25 8 13.25C10.9015 13.25 13.25 10.9019 13.25 8C13.25 5.09847 10.9019 2.75 8 2.75ZM8 12.4297C5.55184 12.4297 3.57031 10.4485 3.57031 8C3.57031 5.55184 5.55151 3.57031 8 3.57031C10.4482 3.57031 12.4297 5.55151 12.4297 8C12.4297 10.4482 10.4485 12.4297 8 12.4297Z" fill="#828282"/>
<path d="M8 5.38477C7.09536 5.38477 6.35938 6.12075 6.35938 7.02539C6.35938 7.25192 6.543 7.43555 6.76953 7.43555C6.99606 7.43555 7.17969 7.25192 7.17969 7.02539C7.17969 6.57307 7.54768 6.20508 8 6.20508C8.45232 6.20508 8.82031 6.57307 8.82031 7.02539C8.82031 7.47771 8.45232 7.8457 8 7.8457C7.77347 7.8457 7.58984 8.02933 7.58984 8.25586V9.28125C7.58984 9.50778 7.77347 9.69141 8 9.69141C8.22653 9.69141 8.41016 9.50778 8.41016 9.28125V8.61411C9.11698 8.43153 9.64062 7.78847 9.64062 7.02539C9.64062 6.12075 8.90464 5.38477 8 5.38477Z" fill="#828282"/>
</svg>
