<svg width="18" height="18" viewBox="0 0 18 18" fill="none" xmlns="http://www.w3.org/2000/svg">
<path fill-rule="evenodd" clip-rule="evenodd" d="M14.1587 3.44141C15.567 3.44141 16.7003 4.58307 16.7003 5.99141V8.85807C14.6503 10.0581 11.942 10.7831 8.99199 10.7831C6.04199 10.7831 3.34199 10.0581 1.29199 8.85807V5.98307C1.29199 4.57474 2.43366 3.44141 3.84199 3.44141H14.1587Z" stroke="#848E9C" stroke-width="1.5" stroke-linecap="round" stroke-linejoin="round"/>
<path d="M11.9134 3.43768V3.13268C11.9134 2.11602 11.0884 1.29102 10.0717 1.29102H7.92174C6.90508 1.29102 6.08008 2.11602 6.08008 3.13268V3.43768" stroke="#848E9C" stroke-width="1.5" stroke-linecap="round" stroke-linejoin="round"/>
<path d="M1.3125 11.9023L1.47 13.9932C1.57667 15.4023 2.75083 16.4915 4.16333 16.4915H13.8292C15.2417 16.4915 16.4158 15.4023 16.5225 13.9932L16.68 11.9023" stroke="#848E9C" stroke-width="1.5" stroke-linecap="round" stroke-linejoin="round"/>
</svg>
