<svg width="16" height="16" viewBox="0 0 16 16" fill="none" xmlns="http://www.w3.org/2000/svg">
<path opacity="0.4" d="M14.9166 8.00003C14.9166 11.8201 11.82 14.9167 7.99991 14.9167C4.17984 14.9167 1.08325 11.8201 1.08325 8.00003C1.08325 4.18065 4.17984 1.08337 7.99991 1.08337C11.82 1.08337 14.9166 4.18065 14.9166 8.00003Z" fill="white"/>
<path d="M10.6698 5.72103L9.54925 9.26236C9.50775 9.40761 9.39017 9.52519 9.24492 9.56738L5.71743 10.6734C5.48226 10.7501 5.25401 10.5212 5.33009 10.286L6.43676 6.73778C6.47826 6.59253 6.59584 6.48186 6.74109 6.43345L10.2824 5.32678C10.5245 5.2507 10.7458 5.47895 10.6698 5.72103Z" fill="white"/>
</svg>
