<svg width="16" height="16" viewBox="0 0 16 16" fill="none" xmlns="http://www.w3.org/2000/svg">
<path opacity="0.4" d="M14.9168 8.00003C14.9168 11.8201 11.8202 14.9167 8.00015 14.9167C4.18008 14.9167 1.0835 11.8201 1.0835 8.00003C1.0835 4.18065 4.18008 1.08337 8.00015 1.08337C11.8202 1.08337 14.9168 4.18065 14.9168 8.00003Z" fill="#4E4B66"/>
<path d="M10.67 5.72103L9.5495 9.26236C9.508 9.40761 9.39041 9.52519 9.24517 9.56738L5.71767 10.6734C5.4825 10.7501 5.25425 10.5212 5.33034 10.286L6.437 6.73778C6.4785 6.59253 6.59609 6.48186 6.74134 6.43345L10.2827 5.32678C10.5247 5.2507 10.7461 5.47895 10.67 5.72103Z" fill="#4E4B66"/>
</svg>
