<svg width="19" height="22" viewBox="0 0 19 22" fill="none" xmlns="http://www.w3.org/2000/svg">
<path fill-rule="evenodd" clip-rule="evenodd" d="M17.0351 7.80605C17.0351 9.15618 17.392 9.95196 18.1772 10.869C18.7723 11.5446 18.9625 12.4119 18.9625 13.3527C18.9625 14.2925 18.6537 15.1846 18.0351 15.909C17.2253 16.7773 16.0832 17.3316 14.9175 17.428C13.2284 17.572 11.5382 17.6933 9.82553 17.6933C8.11182 17.6933 6.42268 17.6207 4.73353 17.428C3.56684 17.3316 2.42472 16.7773 1.61594 15.909C0.997336 15.1846 0.6875 14.2925 0.6875 13.3527C0.6875 12.4119 0.878744 11.5446 1.47277 10.869C2.28262 9.95196 2.61596 9.15618 2.61596 7.80605V7.34807C2.61596 5.53996 3.06683 4.35766 3.99527 3.20025C5.37564 1.51232 7.5883 0.5 9.77746 0.5H9.87361C12.1098 0.5 14.394 1.56105 15.7509 3.32151C16.6312 4.4551 17.0351 5.5876 17.0351 7.34807V7.80605ZM6.67895 19.9154C6.67895 19.374 7.17575 19.1261 7.63516 19.02C8.17257 18.9063 11.4472 18.9063 11.9846 19.02C12.444 19.1261 12.9408 19.374 12.9408 19.9154C12.9141 20.4307 12.6118 20.8876 12.194 21.1778C11.6524 21.6001 11.0167 21.8675 10.3521 21.9639C9.98458 22.0115 9.62346 22.0126 9.26875 21.9639C8.60314 21.8675 7.96744 21.6001 7.42683 21.1767C7.00801 20.8876 6.70566 20.4307 6.67895 19.9154Z" fill="white"/>
</svg>
