<svg width="12" height="12" viewBox="0 0 12 12" fill="none" xmlns="http://www.w3.org/2000/svg">
<path d="M6 9.02539C6.28315 9.02539 6.5127 8.79585 6.5127 8.5127C6.5127 8.22954 6.28315 8 6 8C5.71685 8 5.4873 8.22954 5.4873 8.5127C5.4873 8.79585 5.71685 9.02539 6 9.02539Z" fill="current"/>
<path d="M6 0.75C3.09847 0.75 0.75 3.09808 0.75 6C0.75 8.90153 3.09808 11.25 6 11.25C8.90153 11.25 11.25 8.90192 11.25 6C11.25 3.09847 8.90192 0.75 6 0.75ZM6 10.4297C3.55184 10.4297 1.57031 8.44849 1.57031 6C1.57031 3.55184 3.55151 1.57031 6 1.57031C8.44816 1.57031 10.4297 3.55151 10.4297 6C10.4297 8.44816 8.44849 10.4297 6 10.4297Z" fill="current"/>
<path d="M6 3.38477C5.09536 3.38477 4.35938 4.12075 4.35938 5.02539C4.35938 5.25192 4.543 5.43555 4.76953 5.43555C4.99606 5.43555 5.17969 5.25192 5.17969 5.02539C5.17969 4.57307 5.54768 4.20508 6 4.20508C6.45232 4.20508 6.82031 4.57307 6.82031 5.02539C6.82031 5.47771 6.45232 5.8457 6 5.8457C5.77347 5.8457 5.58984 6.02933 5.58984 6.25586V7.28125C5.58984 7.50778 5.77347 7.69141 6 7.69141C6.22653 7.69141 6.41016 7.50778 6.41016 7.28125V6.61411C7.11698 6.43153 7.64062 5.78847 7.64062 5.02539C7.64062 4.12075 6.90464 3.38477 6 3.38477Z" fill="current"/>
</svg>
