<svg width="25" height="25" viewBox="0 0 25 25" fill="none" xmlns="http://www.w3.org/2000/svg">
<circle opacity="0.1" cx="12.2705" cy="12.5" r="12" fill="#F84960"/>
<circle cx="12.3261" cy="12.5556" r="9.65517" fill="#F84960"/>
<g clip-path="url(#clip0)">
<path d="M12.2707 14.2773C12.0023 14.2773 11.7773 14.5023 11.7773 14.7707C11.7773 15.0391 12.0023 15.2641 12.2707 15.2641C12.5292 15.2641 12.7641 15.0391 12.7522 14.7825C12.7641 14.5003 12.5411 14.2773 12.2707 14.2773Z" fill="white"/>
<path d="M16.8371 16.0268C17.1469 15.492 17.1489 14.8545 16.841 14.3217L13.7507 8.96977C13.4448 8.43102 12.8922 8.11133 12.2726 8.11133C11.6529 8.11133 11.1003 8.433 10.7945 8.9678L7.70012 14.3257C7.39227 14.8644 7.39424 15.5058 7.70604 16.0406C8.0139 16.5694 8.56449 16.8872 9.1802 16.8872H15.3531C15.9708 16.8872 16.5253 16.5655 16.8371 16.0268ZM16.1661 15.64C15.9944 15.936 15.6905 16.1116 15.3511 16.1116H9.17822C8.84274 16.1116 8.5408 15.9399 8.37306 15.6498C8.20335 15.3558 8.20137 15.0045 8.37109 14.7085L11.4654 9.35261C11.6332 9.05857 11.9331 8.88491 12.2726 8.88491C12.61 8.88491 12.9119 9.06055 13.0797 9.35459L16.1721 14.7105C16.3378 14.9986 16.3358 15.3459 16.1661 15.64Z" fill="white"/>
<path d="M12.1484 10.8147C11.9136 10.8818 11.7676 11.0949 11.7676 11.3535C11.7794 11.5094 11.7893 11.6672 11.8011 11.8231C11.8347 12.4171 11.8682 12.9993 11.9018 13.5933C11.9136 13.7946 12.0695 13.9406 12.2708 13.9406C12.4721 13.9406 12.63 13.7847 12.6398 13.5815C12.6398 13.4591 12.6398 13.3466 12.6517 13.2223C12.6734 12.8414 12.6971 12.4605 12.7188 12.0797C12.7306 11.833 12.7523 11.5863 12.7642 11.3396C12.7642 11.2508 12.7523 11.1719 12.7188 11.093C12.6181 10.8719 12.3833 10.7595 12.1484 10.8147Z" fill="white"/>
</g>
<defs>
<clipPath id="clip0">
<rect width="9.6" height="9.6" fill="white" transform="translate(7.4707 7.69922)"/>
</clipPath>
</defs>
</svg>
