<svg width="16" height="16" viewBox="0 0 16 16" fill="none" xmlns="http://www.w3.org/2000/svg">
<path opacity="0.4" d="M4.39055 14.5C2.7974 14.5 1.5 13.1803 1.5 11.5591L1.5 8.33433C1.5 6.71635 2.7935 5.4 4.38405 5.4H11.6095C13.2032 5.4 14.5 6.71966 14.5 8.34161V11.565C14.5 13.1837 13.2065 14.5 11.6159 14.5H11.0049H4.39055Z" fill="white"/>
<path d="M7.64582 1.64368L5.75497 3.49345C5.55997 3.68463 5.55997 3.99229 5.75627 4.18283C5.95257 4.37275 6.26912 4.37212 6.46412 4.18157L7.49957 3.16806V4.13979V9.59349C7.49957 9.86253 7.72382 10.0809 8.00007 10.0809C8.27697 10.0809 8.50057 9.86253 8.50057 9.59349V3.16806L9.53602 4.18157C9.73102 4.37212 10.0476 4.37275 10.2439 4.18283C10.342 4.08724 10.3914 3.96253 10.3914 3.83719C10.3914 3.71311 10.342 3.5884 10.2452 3.49345L8.35497 1.64368C8.26072 1.55189 8.13332 1.49998 8.00007 1.49998C7.86747 1.49998 7.74007 1.55189 7.64582 1.64368Z" fill="white"/>
</svg>
