<?xml version="1.0" encoding="iso-8859-1"?>
<!-- Generator: Adobe Illustrator 19.0.0, SVG Export Plug-In . SVG Version: 6.00 Build 0)  -->
<svg version="1.1" id="Layer_1" xmlns="http://www.w3.org/2000/svg" xmlns:xlink="http://www.w3.org/1999/xlink" x="0px" y="0px"
	 viewBox="0 0 512 512" style="enable-background:new 0 0 512 512;" xml:space="preserve">
<g transform="translate(1 1)">
	<path style="fill:#E2E3E5;" d="M511,255c0,130.844-106.193,237.037-237.037,237.037S36.926,385.844,36.926,255
		S143.119,17.963,273.963,17.963S511,124.156,511,255"/>
	<path style="fill:#CCCCCC;" d="M482.556,255c0,130.844-106.193,237.037-237.037,237.037S8.481,385.844,8.481,255
		S114.674,17.963,245.519,17.963S482.556,124.156,482.556,255"/>
	<path style="fill:#E2E3E5;" d="M454.111,255c0,130.844-92.919,237.037-208.593,237.037S36.926,385.844,36.926,255
		S130.793,17.963,245.519,17.963S454.111,124.156,454.111,255"/>
	<path style="fill:#FFFFFF;" d="M36.926,255c0-130.844,93.867-237.037,208.593-237.037C114.674,17.963,8.481,124.156,8.481,255
		s106.193,237.037,237.037,237.037C130.793,492.037,36.926,385.844,36.926,255"/>
	<g>
		<path style="fill:#B6B6B6;" d="M245.519,501.519C109.933,501.519-1,390.585-1,255S109.933,8.481,245.519,8.481
			S492.037,119.415,492.037,255S381.104,501.519,245.519,501.519z M245.519,27.444c-125.156,0-227.556,102.4-227.556,227.556
			s102.4,227.556,227.556,227.556S473.074,380.156,473.074,255S370.674,27.444,245.519,27.444z"/>
		<path style="fill:#B6B6B6;" d="M217.074,340.333c-1.896,0-3.793-0.948-5.689-1.896l-94.815-75.852
			c-3.793-2.844-4.741-9.481-1.896-13.274s9.481-4.741,13.274-1.896l88.178,70.163l146.015-164.03
			c3.793-3.793,9.481-4.741,13.274-0.948s4.741,9.481,0.948,13.274L224.659,336.541
			C222.763,339.385,219.919,340.333,217.074,340.333z"/>
	</g>
</g>
<g>
</g>
<g>
</g>
<g>
</g>
<g>
</g>
<g>
</g>
<g>
</g>
<g>
</g>
<g>
</g>
<g>
</g>
<g>
</g>
<g>
</g>
<g>
</g>
<g>
</g>
<g>
</g>
<g>
</g>
</svg>
