<svg width="25" height="24" viewBox="0 0 25 24" fill="none" xmlns="http://www.w3.org/2000/svg">
<path d="M13 8C10.79 8 9 9.79 9 12C9 14.21 10.79 16 13 16C15.21 16 17 14.21 17 12C17 9.79 15.21 8 13 8Z" fill="url(#paint0_linear)"/>
<path d="M6.44545 7.20548L7.73636 5.91781L6.1 4.2831L4.81818 5.57078L6.44545 7.20548ZM2.5 11.0868H5.22727V12.9132H2.5V11.0868ZM11.5909 2H13.4091V4.69406H11.5909V2ZM18.5545 7.21005L17.2727 5.92511L18.9 4.29041L20.1782 5.57808L18.5545 7.21005ZM17.2636 18.0822L18.8909 19.726L20.1727 18.4384L18.5364 16.8037L17.2636 18.0822ZM19.7727 11.0868H22.5V12.9132H19.7727V11.0868ZM12.5 6.52055C9.49091 6.52055 7.04545 8.97717 7.04545 12C7.04545 15.0228 9.49091 17.4795 12.5 17.4795C15.5091 17.4795 17.9545 15.0228 17.9545 12C17.9545 8.97717 15.5091 6.52055 12.5 6.52055ZM12.5 15.653C10.4909 15.653 8.86364 14.0183 8.86364 12C8.86364 9.98173 10.4909 8.34703 12.5 8.34703C14.5091 8.34703 16.1364 9.98173 16.1364 12C16.1364 14.0183 14.5091 15.653 12.5 15.653ZM11.5909 19.3059H13.4091V22H11.5909V19.3059ZM4.81818 18.4292L6.1 19.7169L7.72727 18.0731L6.44545 16.7854L4.81818 18.4292Z" fill="white"/>
<defs>
<linearGradient id="paint0_linear" x1="13" y1="8" x2="13" y2="16" gradientUnits="userSpaceOnUse">
<stop stop-color="white" stop-opacity="0.3"/>
<stop offset="1" stop-color="white" stop-opacity="0"/>
</linearGradient>
</defs>
</svg>
