<svg width="25" height="24" viewBox="0 0 25 24" fill="none" xmlns="http://www.w3.org/2000/svg">
<path d="M18.4995 9.52002V6.00002H14.9795L12.4995 3.52002L10.0195 6.00002H6.49953V9.52002L4.01953 12L6.49953 14.48V18H10.0195L12.4995 20.48L14.9795 18H18.4995V14.48L20.9795 12L18.4995 9.52002ZM12.7895 17C12.0495 17 11.3395 16.83 10.7095 16.54C12.4295 15.75 13.6295 14.02 13.6295 12C13.6295 9.98002 12.4295 8.25002 10.7095 7.46002C11.3395 7.17002 12.0495 7.00002 12.7895 7.00002C15.5495 7.00002 17.7895 9.24002 17.7895 12C17.7895 14.76 15.5495 17 12.7895 17Z" fill="#E4E4EB"/>
<path d="M20.5004 8.69V4H15.8104L12.5004 0.690002L9.19043 4H4.50043V8.69L1.19043 12L4.50043 15.31V20H9.19043L12.5004 23.31L15.8104 20H20.5004V15.31L23.8104 12L20.5004 8.69ZM18.5004 14.48V18H14.9804L12.5004 20.48L10.0204 18H6.50043V14.48L4.02043 12L6.50043 9.52V6H10.0204L12.5004 3.52L14.9804 6H18.5004V9.52L20.9804 12L18.5004 14.48ZM12.7904 7C12.0504 7 11.3404 7.17 10.7104 7.46C12.4304 8.25 13.6304 9.99 13.6304 12C13.6304 14.01 12.4304 15.75 10.7104 16.54C11.3404 16.83 12.0504 17 12.7904 17C15.5504 17 17.7904 14.76 17.7904 12C17.7904 9.24 15.5504 7 12.7904 7Z" fill="#A0A3BD"/>
</svg>
