<svg width="16" height="16" viewBox="0 0 16 16" fill="none" xmlns="http://www.w3.org/2000/svg">
<path opacity="0.4" d="M4.61761 8.56891C4.28787 8.56891 4.02094 8.83981 4.02094 9.17446L3.85645 12.0998C3.85645 12.5262 4.1974 12.8715 4.61761 12.8715C5.03783 12.8715 5.37803 12.5262 5.37803 12.0998L5.21428 9.17446C5.21428 8.83981 4.94735 8.56891 4.61761 8.56891Z" fill="white"/>
<path d="M5.43212 2.68026C5.43212 2.68026 5.26089 2.50421 5.15472 2.42757C5.00069 2.30919 4.81077 2.25 4.6216 2.25C4.40925 2.25 4.21186 2.31678 4.0511 2.44274C4.02194 2.47234 3.89782 2.58389 3.79539 2.68785C3.15236 3.29567 2.10033 4.88239 1.77881 5.71331C1.72797 5.83928 1.61806 6.15799 1.61133 6.32872C1.61133 6.49111 1.64722 6.64743 1.72049 6.79541C1.82293 6.98056 1.98369 7.12929 2.17361 7.21049C2.3052 7.26285 2.69924 7.34404 2.70672 7.34404C3.13815 7.426 3.8395 7.47001 4.61413 7.47001C5.35211 7.47001 6.0243 7.426 6.46246 7.35922C6.46994 7.35163 6.95894 7.27044 7.12717 7.18089C7.43374 7.01774 7.6244 6.69903 7.6244 6.35832V6.32872C7.61692 6.10639 7.42626 5.63895 7.41953 5.63895C7.09801 4.8528 6.09683 3.30326 5.43212 2.68026Z" fill="white"/>
<path opacity="0.4" d="M11.3832 7.43115C11.713 7.43115 11.9799 7.16024 11.9799 6.82559L12.1437 3.90023C12.1437 3.47376 11.8035 3.12848 11.3832 3.12848C10.963 3.12848 10.6221 3.47376 10.6221 3.90023L10.7866 6.82559C10.7866 7.16024 11.0535 7.43115 11.3832 7.43115Z" fill="white"/>
<path d="M14.2799 9.20452C14.1774 9.01936 14.0167 8.87139 13.8268 8.78943C13.6952 8.73707 13.3004 8.65588 13.2937 8.65588C12.8622 8.57392 12.1609 8.52991 11.3863 8.52991C10.6483 8.52991 9.97607 8.57392 9.53792 8.6407C9.53044 8.64829 9.04144 8.73024 8.8732 8.81903C8.56589 8.98218 8.37598 9.3009 8.37598 9.64238V9.67197C8.38345 9.89432 8.57337 10.361 8.58085 10.361C8.90236 11.1472 9.9028 12.6975 10.5683 13.3198C10.5683 13.3198 10.7395 13.4958 10.8457 13.5717C10.9989 13.6908 11.1889 13.75 11.3795 13.75C11.5911 13.75 11.7878 13.6832 11.9493 13.5573C11.9784 13.5277 12.1026 13.4161 12.205 13.3129C12.8473 12.7043 13.9 11.1176 14.2208 10.2874C14.2724 10.1614 14.3823 9.84196 14.3891 9.67197C14.3891 9.50882 14.3532 9.3525 14.2799 9.20452Z" fill="white"/>
</svg>
