<svg width="20" height="20" viewBox="0 0 20 20" fill="none" xmlns="http://www.w3.org/2000/svg">
<g clip-path="url(#clip0)">
<path d="M11.0231 12.0796C8.92779 12.0796 6.8325 12.0729 4.73754 12.0851C4.29421 12.0875 4.04557 11.8563 4.07057 11.4639C4.08701 11.2058 4.0732 10.9462 4.07419 10.6872C4.07616 10.2881 4.27612 10.104 4.7109 10.104C8.09704 10.1037 11.4832 10.1037 14.8697 10.1037C15.6958 10.1037 16.522 10.1117 17.3478 10.1001C17.7283 10.0949 18.0088 10.2805 17.9822 10.6802C17.9631 10.9636 17.9792 11.2487 17.9779 11.533C17.9763 11.8886 17.7733 12.079 17.3905 12.079C15.2683 12.0799 13.1457 12.0796 11.0231 12.0796Z" fill="#4E4B66"/>
<path d="M11.021 16.4997C8.92046 16.4997 6.81991 16.4997 4.71902 16.4997C4.26221 16.4997 4.07573 16.3257 4.07442 15.8976C4.07376 15.6387 4.07343 15.3797 4.07409 15.1207C4.07508 14.7079 4.26977 14.526 4.71376 14.526C7.15898 14.5257 9.6042 14.5257 12.0494 14.526C13.8218 14.526 15.5944 14.5238 17.3668 14.5305C17.5065 14.5311 17.6591 14.5714 17.7821 14.6332C17.9291 14.7072 17.9811 14.8529 17.9795 15.0116C17.9765 15.3315 17.9798 15.6515 17.9778 15.9714C17.9758 16.3056 17.7677 16.4988 17.4046 16.4994C16.1683 16.5009 14.9321 16.5 13.6958 16.5003C12.8042 16.4997 11.9126 16.4997 11.021 16.4997Z" fill="#4E4B66"/>
<path d="M13.9697 7.66017C12.8429 7.66017 11.7162 7.66048 10.5895 7.65987C10.1682 7.65956 9.96821 7.47279 9.96788 7.08066C9.96755 6.79639 9.96656 6.51212 9.96821 6.22785C9.97018 5.88965 10.1853 5.6849 10.5507 5.68459C12.8423 5.68277 15.1339 5.68277 17.4256 5.6849C17.7778 5.6852 17.9899 5.88112 17.9958 6.2056C18.0014 6.51517 18.0011 6.82503 17.9962 7.13459C17.9909 7.46548 17.7752 7.65956 17.415 7.65987C16.2669 7.66109 15.1181 7.66017 13.9697 7.66017Z" fill="#4E4B66"/>
<path d="M4.67595 6.84709C4.72463 6.80504 4.76903 6.76879 4.81112 6.7304C5.92997 5.70909 7.04849 4.68748 8.16734 3.66587C8.40972 3.44437 8.58896 3.44345 8.8274 3.66313C8.98658 3.80968 9.14642 3.95563 9.30263 4.10492C9.497 4.29017 9.49601 4.51412 9.29671 4.69601C7.9289 5.94583 6.56109 7.19534 5.19098 8.44303C4.8792 8.727 4.40956 8.71847 4.10304 8.43298C3.46206 7.8364 2.82041 7.24044 2.1791 6.64447C1.94099 6.42327 1.93902 6.25174 2.17318 6.03267C2.33499 5.88124 2.49712 5.73042 2.66058 5.58051C2.86909 5.38887 3.0605 5.38704 3.27295 5.57899C3.70378 5.96868 4.13199 6.36051 4.56183 6.75111C4.59604 6.7825 4.63287 6.81114 4.67595 6.84709Z" fill="#4E4B66"/>
</g>
<defs>
<clipPath id="clip0">
<rect width="16" height="13" fill="white" transform="translate(2 3.5)"/>
</clipPath>
</defs>
</svg>
