<svg width="20" height="20" viewBox="0 0 20 20" fill="none" xmlns="http://www.w3.org/2000/svg">
<g clip-path="url(#clip0)">
<path d="M11.0231 12.3996C8.92779 12.3996 6.8325 12.3918 4.73754 12.4059C4.29421 12.4087 4.04557 12.1419 4.07057 11.6891C4.08701 11.3913 4.0732 11.0918 4.07419 10.7929C4.07616 10.3324 4.27612 10.12 4.7109 10.12C8.09704 10.1197 11.4832 10.1197 14.8697 10.1197C15.6958 10.1197 16.522 10.1288 17.3478 10.1155C17.7283 10.1095 18.0088 10.3236 17.9822 10.7848C17.9631 11.1118 17.9792 11.4409 17.9779 11.7689C17.9763 12.1791 17.7733 12.3989 17.3905 12.3989C15.2683 12.3999 13.1457 12.3996 11.0231 12.3996Z" fill="white"/>
<path d="M11.021 17.4997C8.92046 17.4997 6.81991 17.4997 4.71902 17.4997C4.26221 17.4997 4.07573 17.2989 4.07442 16.805C4.07376 16.5062 4.07343 16.2073 4.07409 15.9085C4.07508 15.4321 4.26977 15.2223 4.71376 15.2223C7.15898 15.2219 9.6042 15.2219 12.0494 15.2223C13.8218 15.2223 15.5944 15.2198 17.3668 15.2275C17.5065 15.2282 17.6591 15.2746 17.7821 15.346C17.9291 15.4314 17.9811 15.5995 17.9795 15.7827C17.9765 16.1518 17.9798 16.5209 17.9778 16.8901C17.9758 17.2757 17.7677 17.4986 17.4046 17.4993C16.1683 17.5011 14.9321 17.5 13.6958 17.5004C12.8042 17.4997 11.9126 17.4997 11.021 17.4997Z" fill="white"/>
<path d="M13.9697 7.30022C12.8429 7.30022 11.7162 7.30057 10.5895 7.29987C10.1682 7.29952 9.96821 7.08401 9.96788 6.63155C9.96755 6.30355 9.96656 5.97554 9.96821 5.64754C9.97018 5.25731 10.1853 5.02106 10.5507 5.02071C12.8423 5.0186 15.1339 5.0186 17.4256 5.02106C17.7778 5.02141 17.9899 5.24746 17.9958 5.62187C18.0014 5.97906 18.0011 6.33659 17.9962 6.69378C17.9909 7.07557 17.7752 7.29952 17.415 7.29987C16.2669 7.30127 15.1181 7.30022 13.9697 7.30022Z" fill="white"/>
<path d="M4.67595 6.36217C4.72463 6.31366 4.76903 6.27182 4.81112 6.22753C5.92997 5.0491 7.04849 3.87032 8.16734 2.69154C8.40972 2.43595 8.58896 2.4349 8.8274 2.68837C8.98658 2.85747 9.14642 3.02587 9.30263 3.19813C9.497 3.41188 9.49601 3.67028 9.29671 3.88016C7.9289 5.32226 6.56109 6.76401 5.19098 8.20364C4.8792 8.5313 4.40956 8.52145 4.10304 8.19204C3.46206 7.50369 2.82041 6.81604 2.1791 6.12839C1.94099 5.87315 1.93902 5.67523 2.17318 5.42245C2.33499 5.24773 2.49712 5.07371 2.66058 4.90074C2.86909 4.67961 3.0605 4.6775 3.27295 4.89898C3.70378 5.34863 4.13199 5.80073 4.56183 6.25143C4.59604 6.28764 4.63287 6.32069 4.67595 6.36217Z" fill="white"/>
</g>
<defs>
<clipPath id="clip0">
<rect width="16" height="15" fill="white" transform="translate(2 2.5)"/>
</clipPath>
</defs>
</svg>
