<svg width="140" height="140" viewBox="0 0 140 140" fill="none" xmlns="http://www.w3.org/2000/svg">
<circle opacity="0.1" cx="70" cy="70" r="70" fill="#FFCC00"/>
<circle cx="70.3218" cy="70.3218" r="56.3218" fill="#FFCC00"/>
<g clip-path="url(#clip0)">
<path d="M69.999 80.3779C68.4334 80.3779 67.1211 81.6903 67.1211 83.2558C67.1211 84.8214 68.4334 86.1338 69.999 86.1338C71.507 86.1338 72.8769 84.8214 72.8079 83.3249C72.8769 81.6787 71.5761 80.3779 69.999 80.3779Z" fill="white"/>
<path d="M96.6373 90.5771C98.4446 87.4575 98.4562 83.7392 96.6603 80.631L78.6331 49.4114C76.8488 46.2687 73.6255 44.4038 70.0108 44.4038C66.3962 44.4038 63.1729 46.2802 61.3886 49.3999L43.3383 80.6541C41.5425 83.7967 41.554 87.538 43.3728 90.6577C45.1686 93.7428 48.3804 95.5962 51.972 95.5962H87.9805C91.5837 95.5962 94.8185 93.7198 96.6373 90.5771ZM92.7233 88.3208C91.7218 90.0476 89.949 91.0721 87.969 91.0721H51.9605C50.0035 91.0721 48.2423 90.0706 47.2638 88.3784C46.2738 86.6631 46.2622 84.6141 47.2523 82.8873L65.3025 51.6446C66.281 49.9294 68.0308 48.9164 70.0108 48.9164C71.9793 48.9164 73.7406 49.9409 74.7191 51.6562L92.7579 82.8988C93.7249 84.5795 93.7133 86.6056 92.7233 88.3208Z" fill="white"/>
<path d="M69.2857 60.1748C67.9158 60.5662 67.064 61.8094 67.064 63.3174C67.133 64.2269 67.1906 65.1478 67.2597 66.0572C67.4554 69.5222 67.6511 72.9182 67.8468 76.3832C67.9158 77.5574 68.8252 78.4092 69.9994 78.4092C71.1736 78.4092 72.0946 77.4998 72.1521 76.3141C72.1521 75.6004 72.1521 74.9442 72.2212 74.219C72.3478 71.9972 72.486 69.7755 72.6126 67.5537C72.6817 66.1148 72.8083 64.6758 72.8774 63.2369C72.8774 62.7188 72.8083 62.2584 72.6126 61.7979C72.0255 60.5086 70.6556 59.8524 69.2857 60.1748Z" fill="white"/>
</g>
<defs>
<clipPath id="clip0">
<rect width="56" height="56" fill="white" transform="translate(42 42)"/>
</clipPath>
</defs>
</svg>
