<svg width="17" height="16" viewBox="0 0 17 16" fill="none" xmlns="http://www.w3.org/2000/svg">
<path d="M13.9766 6.00476L6.08218 9.80775L5.39159 10.1343L3.97656 10.8193V11.6388L5.38482 10.9602L6.58997 10.3776L12.4126 7.57333C12.6631 9.36599 11.3293 11.0114 9.43357 11.2483C9.28462 11.2675 9.1289 11.2803 8.97318 11.2803C8.38415 11.2803 7.80188 11.133 7.28056 10.8577L7.23993 10.8833L6.49518 11.2355C8.38415 12.5351 11.0314 12.1382 12.4058 10.3455C12.9271 9.6669 13.2115 8.8474 13.2115 8.00229C13.2115 7.89985 13.2115 7.79741 13.198 7.69498C13.1776 7.40047 13.3401 7.12517 13.6177 6.99072L13.9766 6.81146V6.00476ZM12.5683 5.05081L11.3632 5.62702L5.54731 8.43125C5.29681 6.63859 6.63736 4.99319 8.5331 4.75631C9.27108 4.66667 10.0226 4.80112 10.6726 5.14685L11.3632 4.81393L11.4647 4.76271C9.57575 3.46304 6.92849 3.86638 5.55408 5.65263C5.02599 6.33768 4.7484 7.15718 4.7484 8.00229C4.7484 8.10473 4.7484 8.20716 4.75517 8.3096C4.78225 8.59771 4.61976 8.87941 4.34217 9.01386L3.97656 9.18672V10.0062L5.0463 9.48763L5.39159 9.32117L5.73689 9.16111L11.8642 6.20323L12.5548 5.87031L13.9766 5.18526V4.36576L12.5683 5.05081Z" fill="#4E4B66"/>
</svg>
