<svg width="16" height="16" viewBox="0 0 16 16" fill="none" xmlns="http://www.w3.org/2000/svg">
<path d="M5.28212 6.88258L8.00129 4.16451L10.7216 6.88479L12.3029 5.30239L8.00129 0.999695L3.69971 5.30128L5.28212 6.88258Z" fill="#F3BA2F"/>
<path d="M1 8.00024L2.58183 6.41841L4.16366 8.00024L2.58183 9.58207L1 8.00024Z" fill="#F3BA2F"/>
<path d="M5.28237 9.11744L8.00155 11.8366L10.7218 9.11633L12.3042 10.6965L12.3031 10.6976L8.00155 15.0003L3.69997 10.6998L3.69775 10.6976L5.28237 9.11744Z" fill="#F3BA2F"/>
<path d="M11.8364 8.00061L13.4183 6.41878L15.0001 8.00061L13.4183 9.58244L11.8364 8.00061Z" fill="#F3BA2F"/>
<path d="M9.60579 7.99943L8.00127 6.3938L6.81474 7.58033L6.67762 7.71634L6.39674 7.99722L6.39453 7.99943L6.39674 8.00275L8.00127 9.60617L9.60579 8.00054L9.6069 7.99943H9.60579Z" fill="#F3BA2F"/>
</svg>
