<svg width="20" height="20" viewBox="0 0 20 20" fill="none" xmlns="http://www.w3.org/2000/svg">
<path d="M9.99577 13.8974V11.7832" stroke="current" stroke-width="1.5" stroke-linecap="round" stroke-linejoin="round"/>
<path fill-rule="evenodd" clip-rule="evenodd" d="M15.1582 4.44141C16.5665 4.44141 17.6998 5.58307 17.6998 6.99141V9.85807C15.6498 11.0581 12.9415 11.7831 9.9915 11.7831C7.0415 11.7831 4.3415 11.0581 2.2915 9.85807V6.98307C2.2915 5.57474 3.43317 4.44141 4.8415 4.44141H15.1582Z" stroke="current" stroke-width="1.5" stroke-linecap="round" stroke-linejoin="round"/>
<path d="M12.9124 4.43768V4.13268C12.9124 3.11602 12.0874 2.29102 11.0708 2.29102H8.92077C7.9041 2.29102 7.0791 3.11602 7.0791 4.13268V4.43768" stroke="current" stroke-width="1.5" stroke-linecap="round" stroke-linejoin="round"/>
<path d="M2.31201 12.9023L2.46951 14.9932C2.57618 16.4023 3.75035 17.4915 5.16285 17.4915H14.8287C16.2412 17.4915 17.4153 16.4023 17.522 14.9932L17.6795 12.9023" stroke="current" stroke-width="1.5" stroke-linecap="round" stroke-linejoin="round"/>
</svg>
