<svg width="20" height="20" viewBox="0 0 20 20" fill="none" xmlns="http://www.w3.org/2000/svg">
<path d="M14.9065 9.08044C16.069 8.91711 16.964 7.92044 16.9665 6.71294C16.9665 5.52294 16.099 4.53628 14.9615 4.34961" stroke="current" stroke-width="1.5" stroke-linecap="round" stroke-linejoin="round"/>
<path d="M16.4404 11.875C17.5663 12.0433 18.3521 12.4375 18.3521 13.25C18.3521 13.8092 17.9821 14.1725 17.3838 14.4008" stroke="current" stroke-width="1.5" stroke-linecap="round" stroke-linejoin="round"/>
<path fill-rule="evenodd" clip-rule="evenodd" d="M9.90553 12.2188C7.2272 12.2188 4.9397 12.6246 4.9397 14.2454C4.9397 15.8654 7.21303 16.2829 9.90553 16.2829C12.5839 16.2829 14.8705 15.8813 14.8705 14.2596C14.8705 12.6379 12.598 12.2188 9.90553 12.2188Z" stroke="current" stroke-width="1.5" stroke-linecap="round" stroke-linejoin="round"/>
<path fill-rule="evenodd" clip-rule="evenodd" d="M9.90567 9.90602C11.6632 9.90602 13.0882 8.48185 13.0882 6.72352C13.0882 4.96602 11.6632 3.54102 9.90567 3.54102C8.14817 3.54102 6.72317 4.96602 6.72317 6.72352C6.7165 8.47518 8.13067 9.90018 9.88234 9.90602H9.90567Z" stroke="current" stroke-width="1.5" stroke-linecap="round" stroke-linejoin="round"/>
<path d="M4.90399 9.08044C3.74066 8.91711 2.84649 7.92044 2.84399 6.71294C2.84399 5.52294 3.71149 4.53628 4.84899 4.34961" stroke="current" stroke-width="1.5" stroke-linecap="round" stroke-linejoin="round"/>
<path d="M3.36992 11.875C2.24409 12.0433 1.45825 12.4375 1.45825 13.25C1.45825 13.8092 1.82825 14.1725 2.42659 14.4008" stroke="current" stroke-width="1.5" stroke-linecap="round" stroke-linejoin="round"/>
</svg>
